<?xml version="1.0" encoding="utf-8"?>
<!-- Generator: Adobe Illustrator 16.0.0, SVG Export Plug-In . SVG Version: 6.00 Build 0)  -->
<!DOCTYPE svg PUBLIC "-//W3C//DTD SVG 1.1//EN" "http://www.w3.org/Graphics/SVG/1.1/DTD/svg11.dtd">
<svg version="1.1" id="Layer_1" xmlns="http://www.w3.org/2000/svg" xmlns:xlink="http://www.w3.org/1999/xlink" x="0px" y="0px"
	 width="21.155px" height="21.148px" viewBox="0 0 21.155 21.148" enable-background="new 0 0 21.155 21.148" xml:space="preserve">
<g>
	<g>
		<path fill="#BE2026" d="M14.271,20.461l-0.01-0.352c0.592-0.426,1.44-1.034,2.12-1.521c0.641-0.46,1.114-0.799,1.275-0.916
			c0.13-0.094,0.269-0.195,0.413-0.297c0.168-0.121,0.367-0.264,0.588-0.423c0.065-0.047,0.156-0.031,0.203,0.033
			c0.045,0.066,0.031,0.157-0.035,0.204c-0.22,0.157-0.417,0.302-0.587,0.421c-0.194,0.139-0.334,0.239-0.412,0.296
			c-0.232,0.169-0.678,0.489-1.277,0.919C16.04,19.19,15.406,19.646,14.271,20.461L14.271,20.461z M14.256,19.967
			c0.526-0.364,1.021-0.703,1.45-0.997c0.682-0.47,1.174-0.805,1.337-0.91c0.28-0.18,1.175-0.852,2.285-1.688l0.167-0.125
			c0.064-0.048,0.077-0.14,0.029-0.203c-0.049-0.063-0.14-0.078-0.205-0.03l-0.165,0.125c-1.106,0.832-1.995,1.5-2.268,1.677
			c-0.16,0.103-0.654,0.439-1.346,0.914c-0.373,0.256-0.813,0.559-1.294,0.891L14.256,19.967L14.256,19.967z M14.241,19.438
			c0.438-0.3,0.846-0.578,1.209-0.826c0.814-0.553,1.408-0.947,1.584-1.047c0.15-0.084,0.489-0.315,0.946-0.641l0,0
			c0.507-0.358,1.188-0.857,1.931-1.405c0.064-0.047,0.079-0.138,0.031-0.202c-0.047-0.064-0.14-0.079-0.203-0.03
			c-0.717,0.527-1.393,1.021-1.928,1.401l0,0l0,0c-0.45,0.32-0.78,0.546-0.919,0.624c-0.185,0.104-0.784,0.502-1.607,1.063
			c-0.322,0.218-0.677,0.461-1.054,0.718L14.241,19.438L14.241,19.438z M14.227,18.945c0.338-0.195,1.127-0.721,2.125-1.404
			c1.138-0.778,2.556-1.775,3.896-2.732c0.065-0.047,0.081-0.137,0.033-0.201c-0.047-0.065-0.136-0.081-0.202-0.035
			c-1.33,0.952-2.746,1.945-3.892,2.729c-0.877,0.602-1.59,1.077-1.971,1.311L14.227,18.945L14.227,18.945z M14.213,18.509
			c0.415-0.258,1.198-0.787,2.153-1.453c1.239-0.862,2.769-1.95,4.158-2.961c0.064-0.048,0.079-0.14,0.031-0.205
			c-0.047-0.064-0.14-0.077-0.202-0.031c-1.395,1.015-2.92,2.102-4.153,2.96c-0.854,0.592-1.566,1.076-1.996,1.354L14.213,18.509
			L14.213,18.509z M14.201,18.087c0.036-0.017,0.069-0.033,0.099-0.047c0.394-0.169,1.368-0.838,2.562-1.702
			c1.202-0.868,2.604-1.916,3.855-2.858c0.063-0.048,0.077-0.14,0.029-0.204s-0.14-0.078-0.204-0.029
			c-1.266,0.953-2.677,2.009-3.849,2.857c-1.172,0.846-2.123,1.5-2.501,1.666L14.201,18.087L14.201,18.087z M14.188,17.637
			c0.362-0.239,1.57-1.085,3.022-2.115c1.165-0.829,2.487-1.78,3.651-2.633c0.064-0.048,0.078-0.14,0.031-0.204
			c-0.049-0.065-0.14-0.079-0.203-0.031c-0.901,0.66-1.893,1.377-2.835,2.05c1.01-0.733,2.111-1.55,3.099-2.29
			c0.063-0.05,0.078-0.141,0.029-0.204c-0.048-0.064-0.14-0.079-0.203-0.029c-1.395,1.046-3.014,2.24-4.283,3.143
			c-0.202,0.142-0.395,0.276-0.575,0.401c0.355-0.254,0.755-0.549,1.181-0.866c1.232-0.922,2.687-2.045,3.934-3.016
			c0.063-0.048,0.074-0.139,0.023-0.203c-0.047-0.063-0.142-0.074-0.203-0.024c-1.243,0.966-2.696,2.088-3.928,3.008
			c-1.225,0.915-2.224,1.628-2.564,1.782c-0.055,0.024-0.124,0.062-0.212,0.111l0.021,0.646c0.167-0.106,0.296-0.18,0.382-0.219
			c0.221-0.1,0.683-0.396,1.29-0.813c-0.748,0.528-1.346,0.945-1.669,1.163L14.188,17.637L14.188,17.637z M14.15,16.408
			l-0.011-0.346c0.967-0.648,1.664-1.117,1.828-1.24c0.279-0.208,1.258-0.946,2.416-1.824c0.819-0.621,1.719-1.307,2.521-1.918
			c0.063-0.049,0.153-0.037,0.203,0.026c0.048,0.064,0.036,0.154-0.027,0.204c-0.844,0.645-1.732,1.321-2.521,1.918
			c-1.179,0.895-2.15,1.627-2.418,1.827C15.968,15.186,15.201,15.701,14.15,16.408L14.15,16.408z M14.134,15.883l-0.011-0.345
			c0.894-0.601,1.534-1.032,1.686-1.146l0,0c0.288-0.215,1.325-1,2.54-1.918c0.844-0.642,1.763-1.341,2.572-1.96
			c0.063-0.049,0.155-0.035,0.203,0.026c0.049,0.063,0.037,0.155-0.027,0.205c-0.846,0.647-1.757,1.34-2.571,1.96
			c-1.234,0.934-2.266,1.714-2.543,1.92l0,0l0,0C15.813,14.752,15.108,15.227,14.134,15.883L14.134,15.883z M14.118,15.313
			l-0.021-0.702c0.563-0.404,1.312-0.94,2.126-1.53c1.565-1.13,3.393-2.461,4.672-3.403c0.065-0.047,0.157-0.033,0.204,0.031
			s0.034,0.156-0.03,0.203c-1.232,0.907-3.01,2.201-4.568,3.328c1.16-0.818,2.445-1.719,3.54-2.481
			c0.313-0.218,0.609-0.424,0.883-0.615c0.064-0.047,0.157-0.029,0.203,0.037c0.046,0.065,0.028,0.157-0.037,0.202
			c-0.273,0.19-0.569,0.396-0.882,0.614C18.143,12.439,15.395,14.357,14.118,15.313L14.118,15.313z M14.096,14.601l-0.011-0.353
			c0.57-0.418,1.269-0.935,2.011-1.487c1.63-1.207,3.483-2.583,4.766-3.47c0.066-0.047,0.157-0.029,0.204,0.036
			c0.044,0.065,0.026,0.156-0.039,0.203c-1.261,0.872-3.123,2.254-4.757,3.465C15.457,13.6,14.699,14.162,14.096,14.601
			L14.096,14.601z M14.081,14.125l-0.01-0.356c0.865-0.657,1.974-1.498,3.091-2.334c-0.542,0.392-1.046,0.755-1.465,1.057
			c-0.529,0.38-0.935,0.673-0.979,0.705c-0.217,0.155-0.431,0.309-0.648,0.461l-0.011-0.348c0.164-0.116,0.327-0.232,0.487-0.348
			c0.368-0.266,0.649-0.468,0.981-0.708c1.379-0.992,3.649-2.626,5.208-3.771c0.065-0.047,0.156-0.032,0.204,0.032
			c0.047,0.065,0.034,0.156-0.031,0.203l-0.084,0.062c0.063-0.025,0.134-0.004,0.174,0.052c0.046,0.069,0.027,0.158-0.038,0.204
			c-1.808,1.244-4.884,3.578-6.764,5.004L14.081,14.125L14.081,14.125z M14.051,13.126l-0.01-0.348
			c0.117-0.083,0.232-0.166,0.346-0.248c0.38-0.275,0.642-0.464,0.979-0.708c1.396-1.002,3.705-2.662,5.267-3.81
			c0.064-0.049,0.156-0.035,0.201,0.03c0.048,0.065,0.035,0.156-0.029,0.204c-1.611,1.183-3.89,2.822-5.267,3.813l-0.979,0.705
			C14.389,12.887,14.222,13.006,14.051,13.126L14.051,13.126z M14.036,12.583l-0.012-0.363c0.517-0.41,1.34-1.022,2.264-1.693
			c1.409-1.024,3.061-2.184,4.229-2.969c0.068-0.045,0.157-0.028,0.202,0.04c0.045,0.065,0.026,0.156-0.039,0.202
			c-1.166,0.78-2.813,1.938-4.223,2.962C15.421,11.514,14.518,12.19,14.036,12.583L14.036,12.583z M14.02,12.07l-0.011-0.351
			c0.468-0.337,1.072-0.781,1.737-1.268c0.857-0.626,1.812-1.326,2.706-1.971c-0.982,0.677-2.129,1.448-3.229,2.188
			c-0.419,0.281-0.828,0.559-1.221,0.824l-0.011-0.346c0.347-0.232,0.705-0.476,1.068-0.72c2.002-1.347,4.15-2.792,5.207-3.6
			c0.064-0.049,0.156-0.036,0.203,0.027c0.05,0.064,0.037,0.155-0.026,0.205c-0.066,0.049-0.135,0.102-0.209,0.157
			c0.049-0.034,0.096-0.066,0.144-0.099c0.065-0.045,0.157-0.027,0.203,0.038c0.045,0.065,0.028,0.157-0.04,0.202
			c-1.249,0.855-3.096,2.207-4.623,3.327C15.176,11.231,14.509,11.72,14.02,12.07L14.02,12.07z M13.99,11.056
			c2.229-1.522,5.023-3.434,6.288-4.414c0.064-0.05,0.076-0.141,0.027-0.204c-0.051-0.063-0.141-0.074-0.205-0.025
			c-1.228,0.952-3.92,2.797-6.12,4.298L13.99,11.056L13.99,11.056z M13.974,10.55c0.787-0.547,1.778-1.233,2.76-1.91
			c1.292-0.896,2.603-1.8,3.384-2.34c0.065-0.045,0.084-0.136,0.037-0.202C20.11,6.03,20.021,6.015,19.953,6.06
			c-0.705,0.484-2.015,1.392-3.386,2.341c-0.917,0.634-1.843,1.274-2.604,1.803L13.974,10.55L13.974,10.55z M13.958,10.039
			c0.707-0.497,1.547-1.084,2.385-1.665c1.366-0.95,2.771-1.923,3.577-2.479c0.065-0.045,0.083-0.135,0.037-0.202
			c-0.01-0.014-0.021-0.024-0.034-0.033c-0.001-0.024-0.008-0.049-0.021-0.07c-0.042-0.068-0.133-0.09-0.201-0.047
			c-0.521,0.321-1.368,0.871-2.346,1.517c-1.074,0.707-2.296,1.525-3.419,2.28l0.011,0.346l0.218-0.147L13.948,9.69L13.958,10.039
			L13.958,10.039z M13.934,9.213c1.089-0.72,2.212-1.461,3.175-2.1c1.046-0.693,1.972-1.311,2.545-1.697
			c0.065-0.045,0.083-0.135,0.039-0.201c-0.044-0.069-0.136-0.085-0.202-0.039c-0.54,0.363-1.467,0.98-2.545,1.695
			c-0.988,0.656-2.054,1.36-3.022,1.999L13.934,9.213L13.934,9.213z M13.917,8.635c1.128-0.748,2.301-1.512,3.313-2.153
			c0.937-0.595,1.734-1.084,2.229-1.359c0.071-0.039,0.097-0.128,0.057-0.197c-0.039-0.07-0.127-0.097-0.196-0.057
			c-0.505,0.279-1.307,0.771-2.245,1.367c-0.97,0.615-2.087,1.341-3.168,2.056L13.917,8.635L13.917,8.635z M13.902,8.174
			c1.008-0.651,2.047-1.313,2.972-1.887c0.998-0.623,1.86-1.145,2.402-1.444c0.07-0.039,0.095-0.128,0.057-0.198
			c-0.039-0.071-0.127-0.097-0.199-0.057C18.59,4.89,17.72,5.414,16.718,6.039c-0.878,0.547-1.861,1.173-2.826,1.794L13.902,8.174
			L13.902,8.174z M13.891,7.767c1.728-1.092,3.884-2.456,5.139-3.293c0.066-0.043,0.085-0.136,0.041-0.201
			c-0.045-0.068-0.137-0.086-0.204-0.041c-1.217,0.812-3.287,2.123-4.987,3.196L13.891,7.767L13.891,7.767z M13.876,7.348
			c0.471-0.294,0.968-0.61,1.465-0.93c1.278-0.822,2.563-1.674,3.429-2.287c0.064-0.044,0.081-0.137,0.034-0.202
			s-0.138-0.082-0.202-0.034c-0.866,0.611-2.146,1.461-3.418,2.279c-0.445,0.286-0.891,0.568-1.317,0.839L13.876,7.348L13.876,7.348
			z M13.857,6.669l-0.01-0.336c0.365-0.221,0.742-0.454,1.126-0.688c1.219-0.745,2.471-1.512,3.37-2.07
			c0.068-0.042,0.159-0.022,0.2,0.046c0.043,0.068,0.021,0.158-0.047,0.201c-0.882,0.547-2.142,1.318-3.372,2.071
			C14.692,6.158,14.265,6.418,13.857,6.669L13.857,6.669z M13.84,6.151l-0.01-0.336l0.982-0.601
			c1.153-0.705,2.331-1.426,3.222-1.977c0.067-0.044,0.159-0.022,0.201,0.045c0.042,0.069,0.021,0.159-0.046,0.202
			c-0.869,0.538-2.062,1.266-3.227,1.978C14.693,5.631,14.433,5.788,13.84,6.151L13.84,6.151z M13.83,5.735l-0.011-0.339
			c0.727-0.461,1.434-0.913,2.058-1.323c0.002-0.002,0.005-0.003,0.007-0.007c0.723-0.474,1.342-0.893,1.758-1.202
			c0.063-0.048,0.156-0.034,0.204,0.029c0.048,0.064,0.035,0.156-0.03,0.204c-0.423,0.314-1.045,0.737-1.771,1.213l-0.009,0.006
			C15.362,4.759,14.602,5.244,13.83,5.735L13.83,5.735z M13.814,5.214l-0.011-0.34c0.649-0.41,1.275-0.814,1.841-1.184
			c0.658-0.432,1.237-0.821,1.665-1.129c0.065-0.049,0.156-0.033,0.203,0.031c0.048,0.066,0.032,0.158-0.032,0.205
			c-0.428,0.307-1.01,0.699-1.678,1.137C15.189,4.336,14.508,4.772,13.814,5.214L13.814,5.214z M13.799,4.714l-0.011-0.342
			c0.583-0.387,1.268-0.84,1.872-1.242c0.438-0.289,0.816-0.539,1.302-0.861c0.068-0.045,0.157-0.026,0.202,0.04
			c0.045,0.068,0.027,0.158-0.041,0.202c-0.207,0.137-0.721,0.478-1.302,0.863C15.268,3.74,14.631,4.163,13.799,4.714L13.799,4.714z
			 M13.788,4.324l-0.012-0.343c0.759-0.507,1.182-0.788,1.58-1.056c0.639-0.425,1.195-0.798,1.316-0.879
			c0.065-0.045,0.156-0.025,0.202,0.041c0.043,0.067,0.024,0.157-0.042,0.202c-0.619,0.412-0.958,0.639-1.316,0.879
			C14.897,3.581,14.202,4.048,13.788,4.324L13.788,4.324z M13.771,3.776C14.22,3.5,14.649,3.234,15.03,3.001
			c0.508-0.313,1.018-0.626,1.498-0.919c0.069-0.042,0.091-0.132,0.051-0.2c-0.041-0.068-0.133-0.09-0.2-0.05
			c-0.428,0.261-0.944,0.577-1.503,0.922c-0.389,0.239-0.763,0.469-1.116,0.687L13.771,3.776L13.771,3.776z M13.755,3.284
			c0.169-0.107,0.333-0.21,0.493-0.31c0.657-0.413,1.302-0.814,1.864-1.163c0.069-0.041,0.09-0.131,0.048-0.198
			c-0.042-0.069-0.13-0.091-0.199-0.047c-0.575,0.354-1.219,0.756-1.867,1.161l-0.348,0.219L13.755,3.284L13.755,3.284z
			 M13.744,2.86c0.735-0.463,1.43-0.896,2.015-1.255c0.068-0.044,0.09-0.134,0.047-0.201c-0.043-0.068-0.131-0.091-0.199-0.047
			c-0.553,0.34-1.196,0.741-1.874,1.166L13.744,2.86L13.744,2.86z M13.729,2.365c0.569-0.366,1.107-0.707,1.575-1.002
			c0.068-0.043,0.09-0.131,0.046-0.199c-0.042-0.068-0.131-0.089-0.199-0.046l-0.085,0.054c0.024-0.045,0.024-0.101-0.005-0.147
			c-0.043-0.068-0.132-0.088-0.2-0.046c-0.098,0.062-0.609,0.383-1.153,0.72L13.729,2.365L13.729,2.365z M13.705,1.598l-0.01-0.342
			c0.247-0.165,0.485-0.321,0.712-0.47c0.067-0.044,0.156-0.027,0.201,0.042c0.044,0.065,0.024,0.156-0.041,0.199
			C14.297,1.207,14.007,1.397,13.705,1.598L13.705,1.598z M13.69,1.084l-0.011-0.34c0.078-0.05,0.155-0.099,0.23-0.146
			c0.068-0.043,0.159-0.021,0.202,0.045c0.043,0.067,0.023,0.159-0.045,0.202C13.943,0.922,13.818,1.002,13.69,1.084z M13.679,0.744
			l0.011,0.34c-0.082,0.052-0.164,0.104-0.247,0.158l-0.011-0.339C13.515,0.849,13.598,0.797,13.679,0.744L13.679,0.744z
			 M13.695,1.256l0.01,0.342l-0.246,0.164l-0.011-0.344L13.695,1.256L13.695,1.256z M13.708,1.698l-0.006,0.005l-0.24,0.15
			l0.021,0.67l0.247-0.158L13.708,1.698L13.708,1.698z M13.732,2.523l0.012,0.337L13.678,2.9l-0.183,0.115l-0.009-0.338l0.036-0.022
			L13.732,2.523L13.732,2.523z M13.747,2.946l-0.248,0.156l0.01,0.338l0.247-0.156L13.747,2.946L13.747,2.946z M13.759,3.44
			l0.012,0.336L13.522,3.93l-0.009-0.336L13.759,3.44L13.759,3.44z M13.776,3.981l0.012,0.343l-0.181,0.121
			c-0.021,0.013-0.044,0.021-0.067,0.022l-0.01-0.321L13.776,3.981L13.776,3.981z M13.789,4.372l-0.247,0.163l0.009,0.322
			c0.023-0.003,0.046-0.011,0.067-0.025l0.182-0.118L13.789,4.372L13.789,4.372z M13.803,4.874l0.011,0.34l-0.185,0.114
			c-0.02,0.014-0.041,0.021-0.064,0.023l-0.008-0.318L13.803,4.874L13.803,4.874z M13.819,5.396l0.011,0.339L13.645,5.85
			c-0.02,0.013-0.042,0.021-0.064,0.022l-0.009-0.32L13.819,5.396L13.819,5.396z M13.831,5.815l-0.246,0.15l0.01,0.319
			c0.021-0.001,0.042-0.009,0.063-0.02l0.183-0.114L13.831,5.815L13.831,5.815z M13.847,6.333l0.01,0.336l-0.248,0.15L13.6,6.485
			L13.847,6.333L13.847,6.333z M13.867,7.013l0.01,0.335l-0.245,0.154l-0.011-0.336C13.701,7.114,13.784,7.064,13.867,7.013
			L13.867,7.013z M13.879,7.428l-0.246,0.157l0.011,0.338l0.247-0.156L13.879,7.428L13.879,7.428z M13.892,7.833l0.01,0.341
			l-0.246,0.16l-0.01-0.341L13.892,7.833L13.892,7.833z M13.906,8.291l-0.245,0.164l0.01,0.33c0.016-0.004,0.033-0.011,0.05-0.021
			l0.196-0.129L13.906,8.291L13.906,8.291z M13.923,8.87l0.011,0.343l-0.247,0.163l-0.01-0.343L13.923,8.87L13.923,8.87z
			 M13.937,9.34l-0.245,0.168l0.01,0.344l0.246-0.166L13.937,9.34L13.937,9.34z M13.948,9.69l0.011,0.349l-0.246,0.173l-0.01-0.349
			L13.948,9.69L13.948,9.69z M13.962,10.203l-0.244,0.173l0.01,0.347l0.246-0.173L13.962,10.203L13.962,10.203z M13.98,10.71
			l0.01,0.346l-0.246,0.168l-0.012-0.344L13.98,10.71L13.98,10.71z M13.993,11.148l-0.247,0.168l0.01,0.344l0.248-0.166
			L13.993,11.148L13.993,11.148z M14.009,11.72l0.011,0.351c-0.088,0.063-0.17,0.122-0.246,0.178l-0.011-0.352
			C13.84,11.841,13.921,11.783,14.009,11.72L14.009,11.72z M14.024,12.22c-0.092,0.073-0.175,0.14-0.245,0.199l0.011,0.373
			c0.062-0.056,0.146-0.126,0.246-0.209L14.024,12.22L14.024,12.22z M14.042,12.778l0.01,0.348
			c-0.082,0.058-0.163,0.114-0.246,0.172l-0.011-0.348C13.876,12.894,13.96,12.835,14.042,12.778L14.042,12.778z M14.058,13.31
			l0.011,0.348c-0.083,0.057-0.166,0.113-0.249,0.17l-0.01-0.347C13.892,13.423,13.975,13.367,14.058,13.31L14.058,13.31z
			 M14.071,13.769l-0.051,0.039l-0.194,0.146l0.009,0.358l0.246-0.187L14.071,13.769L14.071,13.769z M14.085,14.248l0.011,0.353
			c-0.087,0.063-0.167,0.123-0.246,0.179l-0.011-0.352C13.918,14.37,14,14.311,14.085,14.248L14.085,14.248z M14.096,14.61
			c-0.086,0.062-0.169,0.118-0.246,0.174l0.011,0.349c0.075-0.053,0.157-0.111,0.245-0.173c-0.087,0.063-0.17,0.125-0.246,0.183
			l0.013,0.356c0.072-0.058,0.155-0.119,0.245-0.187L14.096,14.61L14.096,14.61z M14.124,15.538l0.011,0.345l-0.244,0.162
			l-0.003,0.002l-0.01-0.344L14.124,15.538L14.124,15.538z M14.139,16.063l0.011,0.346l-0.101,0.067l-0.146,0.098l-0.01-0.344
			L14.139,16.063L14.139,16.063z M14.152,16.516c-0.07,0.041-0.154,0.09-0.245,0.146l0.02,0.659c0.089-0.06,0.172-0.112,0.247-0.158
			L14.152,16.516L14.152,16.516z M14.176,17.293l0.012,0.344l-0.024,0.015c-0.059,0.038-0.134,0.089-0.223,0.149l-0.01-0.343
			c0.026-0.019,0.053-0.035,0.073-0.049C14.047,17.38,14.106,17.342,14.176,17.293L14.176,17.293z M14.192,17.77l-0.008,0.005
			c-0.07,0.03-0.151,0.071-0.24,0.12l0.01,0.324c0.09-0.05,0.175-0.096,0.247-0.132L14.192,17.77L14.192,17.77z M14.205,18.172
			l0.009,0.337c-0.1,0.061-0.177,0.106-0.231,0.135l-0.015,0.01l-0.011-0.329C14.023,18.285,14.105,18.232,14.205,18.172
			L14.205,18.172z M14.216,18.611c-0.092,0.057-0.164,0.099-0.213,0.124l-0.033,0.018l0.008,0.331
			c0.062-0.035,0.116-0.066,0.159-0.089c0.025-0.014,0.056-0.03,0.09-0.05L14.216,18.611L14.216,18.611z M14.231,19.092l0.01,0.346
			l-0.245,0.17l-0.011-0.347L14.231,19.092L14.231,19.092z M14.248,19.62l0.009,0.347l-0.245,0.17L14,19.791L14.248,19.62
			L14.248,19.62z M14.261,20.109l-0.22,0.159c-0.01,0.007-0.018,0.016-0.025,0.022l0.006,0.196c0.049,0.051,0.129,0.061,0.188,0.018
			l0.061-0.044L14.261,20.109L14.261,20.109z M13.427,0.72l-0.01-0.32c0.052-0.005,0.104,0.02,0.136,0.065
			c0.043,0.07,0.023,0.159-0.044,0.202L13.427,0.72z M13.417,0.399l0.01,0.32c-0.1,0.063-0.201,0.129-0.303,0.195L13.107,0.31
			c0.037,0.006,0.073,0.028,0.098,0.063c0.025,0.043,0.028,0.094,0.01,0.136l0.138-0.087C13.371,0.409,13.394,0.402,13.417,0.399
			L13.417,0.399z M13.432,0.903c-0.1,0.062-0.199,0.128-0.302,0.194l0.011,0.34c0.102-0.066,0.201-0.131,0.302-0.195L13.432,0.903
			L13.432,0.903z M13.448,1.418l0.011,0.344L13.156,1.96l-0.011-0.342L13.448,1.418L13.448,1.418z M13.461,1.854l-0.303,0.19
			l0.02,0.675l0.304-0.195L13.461,1.854L13.461,1.854z M13.487,2.678l0.009,0.338l-0.301,0.191l-0.011-0.338L13.487,2.678
			L13.487,2.678z M13.499,3.103l-0.302,0.19l0.011,0.336l0.301-0.188L13.499,3.103L13.499,3.103z M13.513,3.594l0.009,0.336
			l-0.301,0.188L13.212,3.78L13.513,3.594L13.513,3.594z M13.53,4.146l0.01,0.321c-0.053,0.006-0.104-0.019-0.135-0.063
			c-0.045-0.068-0.026-0.158,0.041-0.204L13.53,4.146L13.53,4.146z M13.542,4.535l0.009,0.322c-0.053,0.004-0.104-0.02-0.134-0.064
			c-0.044-0.068-0.026-0.159,0.04-0.202L13.542,4.535L13.542,4.535z M13.557,5.033l0.008,0.318
			c-0.053,0.004-0.106-0.021-0.135-0.068c-0.043-0.068-0.023-0.157,0.045-0.2L13.557,5.033L13.557,5.033z M13.572,5.552l0.009,0.32
			c-0.054,0.004-0.104-0.021-0.135-0.067c-0.044-0.068-0.023-0.158,0.044-0.2L13.572,5.552L13.572,5.552z M13.584,5.966l0.01,0.319
			c-0.055,0.004-0.107-0.021-0.138-0.069c-0.043-0.068-0.021-0.159,0.048-0.201L13.584,5.966L13.584,5.966z M13.6,6.485l0.009,0.334
			l-0.301,0.187L13.297,6.67L13.6,6.485L13.6,6.485z M13.621,7.166l0.011,0.336c-0.104,0.065-0.204,0.129-0.304,0.189l-0.01-0.336
			C13.417,7.293,13.518,7.23,13.621,7.166L13.621,7.166z M13.633,7.585l-0.236,0.147l-0.066,0.043l0.011,0.338l0.212-0.135
			l0.091-0.056L13.633,7.585L13.633,7.585z M13.646,7.993l0.01,0.341L13.354,8.53l-0.012-0.342L13.646,7.993L13.646,7.993z
			 M13.661,8.455l-0.102,0.066c-0.067,0.045-0.086,0.135-0.041,0.202c0.034,0.051,0.095,0.073,0.152,0.062L13.661,8.455
			L13.661,8.455z M13.677,9.033l0.01,0.343l-0.006,0.002c-0.065,0.044-0.156,0.026-0.2-0.041c-0.045-0.066-0.027-0.157,0.042-0.202
			L13.677,9.033L13.677,9.033z M13.692,9.508l0.01,0.344L13.641,9.89c-0.066,0.045-0.155,0.029-0.202-0.038
			c-0.045-0.066-0.026-0.155,0.041-0.201L13.692,9.508L13.692,9.508z M13.703,9.863l-0.265,0.186
			c-0.016,0.011-0.028,0.025-0.038,0.038l0.006,0.168c0.046,0.062,0.136,0.077,0.2,0.031l0.106-0.074L13.703,9.863L13.703,9.863z
			 M13.718,10.376l0.01,0.347l-0.188,0.128c-0.001,0.004-0.005,0.004-0.008,0.007s-0.005,0.005-0.009,0.007l-0.098,0.068
			l-0.011-0.349L13.718,10.376L13.718,10.376z M13.732,10.88l-0.257,0.174l-0.045,0.03l0.011,0.346l0.197-0.136l0.105-0.07
			L13.732,10.88L13.732,10.88z M13.746,11.316l0.01,0.344l-0.303,0.204l-0.009-0.344L13.746,11.316L13.746,11.316z M13.763,11.896
			l0.011,0.352c-0.119,0.081-0.219,0.151-0.303,0.209l-0.01-0.346C13.549,12.05,13.65,11.977,13.763,11.896L13.763,11.896z
			 M13.779,12.419c-0.098,0.079-0.175,0.146-0.229,0.198c-0.019,0.018-0.043,0.037-0.071,0.063l0.011,0.36
			c0.117-0.089,0.207-0.161,0.263-0.214c0.011-0.01,0.024-0.023,0.037-0.034L13.779,12.419L13.779,12.419z M13.794,12.95
			l0.011,0.348c-0.101,0.069-0.201,0.138-0.301,0.206l-0.011-0.345C13.592,13.09,13.695,13.021,13.794,12.95L13.794,12.95z
			 M13.81,13.48c-0.1,0.07-0.201,0.137-0.301,0.208l0.01,0.345c0.1-0.069,0.201-0.138,0.301-0.206L13.81,13.48L13.81,13.48z
			 M13.826,13.953l0.009,0.358l-0.3,0.228l-0.011-0.355L13.826,13.953L13.826,13.953z M13.839,14.428
			c-0.107,0.077-0.207,0.15-0.303,0.219l0.012,0.351c0.095-0.067,0.194-0.139,0.302-0.218L13.839,14.428L13.839,14.428z
			 M13.85,14.784l0.011,0.349c-0.116,0.082-0.216,0.152-0.302,0.213l-0.011-0.348C13.638,14.934,13.74,14.863,13.85,14.784
			L13.85,14.784z M13.86,15.143c-0.113,0.086-0.214,0.164-0.3,0.232l0.011,0.364c0.075-0.065,0.178-0.146,0.302-0.24L13.86,15.143
			L13.86,15.143z M13.877,15.703l0.01,0.344l-0.302,0.203l-0.011-0.342l0.152-0.104L13.877,15.703L13.877,15.703z M13.893,16.229
			l-0.006,0.004l-0.296,0.199l0.011,0.345l0.301-0.204L13.893,16.229L13.893,16.229z M13.907,16.661l0.02,0.659
			c-0.096,0.061-0.195,0.128-0.303,0.202l-0.02-0.67C13.711,16.781,13.815,16.717,13.907,16.661L13.907,16.661z M13.931,17.458
			c-0.081,0.054-0.183,0.122-0.302,0.204l0.01,0.348c0.112-0.079,0.214-0.148,0.302-0.209L13.931,17.458L13.931,17.458z
			 M13.944,17.895l0.01,0.324c-0.095,0.054-0.195,0.114-0.304,0.181l-0.009-0.333C13.751,17.999,13.851,17.942,13.944,17.895
			L13.944,17.895z M13.957,18.324c-0.044,0.026-0.08,0.047-0.11,0.062c-0.053,0.028-0.118,0.066-0.193,0.113l0.011,0.339
			c0.124-0.081,0.226-0.144,0.304-0.185L13.957,18.324L13.957,18.324z M13.97,18.753l0.008,0.331
			c-0.085,0.051-0.186,0.113-0.302,0.189l-0.01-0.34C13.788,18.859,13.888,18.798,13.97,18.753L13.97,18.753z M13.985,19.261
			l-0.302,0.207l0.011,0.347l0.302-0.207L13.985,19.261L13.985,19.261z M14,19.791l0.012,0.346l-0.302,0.209l-0.011-0.347L14,19.791
			L14,19.791z M14.016,20.291c-0.043,0.052-0.05,0.124-0.008,0.181c0.004,0.006,0.008,0.01,0.014,0.016L14.016,20.291L14.016,20.291
			z M13.292,6.472l-0.006-0.167c0.003,0.004,0.006,0.007,0.007,0.012C13.324,6.366,13.322,6.426,13.292,6.472z M13.107,0.31
			l0.018,0.605c-0.106,0.067-0.214,0.137-0.323,0.208l-0.019-0.652l0.219-0.142C13.035,0.311,13.071,0.304,13.107,0.31L13.107,0.31z
			 M13.13,1.098c-0.107,0.068-0.215,0.138-0.322,0.207l0.01,0.342c0.107-0.07,0.216-0.14,0.323-0.209L13.13,1.098L13.13,1.098z
			 M13.145,1.618l0.011,0.342l-0.322,0.212L12.823,1.83L13.145,1.618L13.145,1.618z M13.159,2.044l-0.322,0.201l0.009,0.337
			l0.178-0.11l-0.174,0.112l-0.004,0.002l0.011,0.34l0.152-0.098l0.17-0.109L13.159,2.044L13.159,2.044z M13.184,2.869l0.011,0.338
			L12.871,3.41l-0.009-0.336L13.184,2.869L13.184,2.869z M13.197,3.293l-0.323,0.203l0.01,0.337l0.324-0.204L13.197,3.293
			L13.197,3.293z M13.212,3.78l0.009,0.337l-0.074,0.045c-0.068,0.042-0.159,0.021-0.199-0.046
			c-0.044-0.068-0.022-0.158,0.045-0.201L13.212,3.78L13.212,3.78z M13.286,6.305l0.006,0.167c-0.013,0.019-0.027,0.033-0.046,0.044
			l-0.276,0.17l-0.01-0.336l0.133-0.081C13.159,6.229,13.242,6.245,13.286,6.305L13.286,6.305z M13.297,6.67l-0.323,0.198
			l0.011,0.335l0.323-0.197L13.297,6.67L13.297,6.67z M13.318,7.355l0.01,0.336c-0.109,0.069-0.218,0.136-0.323,0.201l-0.01-0.336
			C13.1,7.49,13.208,7.424,13.318,7.355L13.318,7.355z M13.331,7.775l-0.323,0.204l0.012,0.337l0.322-0.203L13.331,7.775
			L13.331,7.775z M13.342,8.188l0.012,0.342L13.24,8.603c-0.068,0.045-0.159,0.027-0.202-0.042
			c-0.005-0.007-0.009-0.017-0.013-0.024l-0.003-0.101c0.01-0.031,0.03-0.058,0.059-0.075L13.342,8.188L13.342,8.188z M13.4,10.087
			l0.006,0.168l-0.002-0.003C13.367,10.201,13.368,10.136,13.4,10.087L13.4,10.087z M13.415,10.584l0.011,0.349l-0.32,0.223
			l-0.011-0.348l0.263-0.181c0.004-0.005,0.007-0.005,0.009-0.007c0.002-0.004,0.006-0.005,0.01-0.009L13.415,10.584L13.415,10.584z
			 M13.43,11.084l-0.321,0.22l0.01,0.344l0.322-0.218L13.43,11.084L13.43,11.084z M13.444,11.521l0.009,0.344
			c-0.108,0.074-0.215,0.147-0.32,0.219l-0.011-0.346C13.227,11.667,13.333,11.595,13.444,11.521L13.444,11.521z M13.461,12.111
			l0.01,0.346c-0.079,0.055-0.144,0.097-0.19,0.126c-0.03,0.019-0.074,0.047-0.131,0.084l-0.012-0.338
			C13.21,12.285,13.32,12.21,13.461,12.111L13.461,12.111z M13.479,12.68l0.011,0.36c-0.092,0.068-0.198,0.147-0.322,0.234
			l-0.01-0.352C13.294,12.824,13.403,12.742,13.479,12.68L13.479,12.68z M13.494,13.159c-0.108,0.073-0.214,0.147-0.322,0.219
			l0.009,0.344l0.019-0.012c0.102-0.069,0.202-0.138,0.306-0.206L13.494,13.159L13.494,13.159z M13.509,13.688l0.01,0.345
			c-0.076,0.051-0.153,0.103-0.229,0.153l-0.093,0.063l-0.01-0.345C13.294,13.833,13.402,13.761,13.509,13.688L13.509,13.688z
			 M13.524,14.184l-0.322,0.242l0.011,0.354c0.098-0.072,0.205-0.152,0.322-0.241L13.524,14.184L13.524,14.184z M13.537,14.646
			l0.012,0.351c-0.076,0.052-0.146,0.102-0.211,0.148c0.062-0.043,0.131-0.093,0.211-0.147l0.011,0.348
			c-0.086,0.06-0.159,0.108-0.215,0.146l-0.108,0.071l-0.021-0.688C13.314,14.807,13.419,14.729,13.537,14.646L13.537,14.646z
			 M13.56,15.375c-0.135,0.104-0.235,0.187-0.293,0.244c-0.01,0.008-0.019,0.016-0.028,0.024l0.012,0.371
			c0.092-0.073,0.164-0.136,0.216-0.186c0.026-0.026,0.062-0.056,0.104-0.09L13.56,15.375L13.56,15.375z M13.575,15.908l0.011,0.342
			l-0.322,0.216l-0.01-0.344L13.575,15.908L13.575,15.908z M13.591,16.433l-0.321,0.217l0.01,0.344l0.322-0.216L13.591,16.433
			L13.591,16.433z M13.604,16.853l0.02,0.67c-0.102,0.066-0.21,0.14-0.322,0.218l-0.021-0.681
			C13.396,16.984,13.502,16.914,13.604,16.853L13.604,16.853z M13.629,17.662c-0.098,0.065-0.206,0.141-0.323,0.222l0.011,0.348
			c0.115-0.081,0.223-0.154,0.322-0.222L13.629,17.662L13.629,17.662z M13.641,18.066l0.009,0.333
			c-0.101,0.063-0.209,0.129-0.323,0.203l-0.009-0.339C13.431,18.191,13.54,18.126,13.641,18.066L13.641,18.066z M13.653,18.499
			c-0.093,0.056-0.2,0.128-0.322,0.21l0.012,0.346c0.119-0.082,0.227-0.155,0.321-0.217L13.653,18.499L13.653,18.499z
			 M13.667,18.934l0.01,0.34c-0.098,0.062-0.205,0.132-0.322,0.208l-0.01-0.342C13.462,19.063,13.57,18.992,13.667,18.934
			L13.667,18.934z M13.683,19.468l-0.322,0.223l0.012,0.347l0.321-0.223L13.683,19.468L13.683,19.468z M13.699,19.999l0.011,0.347
			l-0.322,0.224l-0.011-0.348L13.699,19.999z M12.783,0.471l0.019,0.652l-0.134,0.086l-0.018-0.65L12.783,0.471L12.783,0.471z
			 M12.808,1.305l0.01,0.342l-0.134,0.088l-0.01-0.343L12.808,1.305L12.808,1.305z M12.823,1.83l0.011,0.342L12.7,2.261l-0.01-0.342
			L12.823,1.83L12.823,1.83z M12.836,2.245l-0.134,0.083l0.009,0.337l0.134-0.083L12.836,2.245L12.836,2.245z M12.845,2.586
			l0.011,0.34l-0.135,0.087l-0.009-0.341L12.845,2.586L12.845,2.586z M12.862,3.074l0.009,0.336l-0.135,0.086l-0.01-0.339
			L12.862,3.074L12.862,3.074z M12.874,3.496l0.01,0.337L12.75,3.917l-0.012-0.338L12.874,3.496L12.874,3.496z M12.959,6.35
			l0.01,0.336l-0.134,0.082l-0.01-0.335L12.959,6.35L12.959,6.35z M12.974,6.868l0.011,0.335l-0.133,0.084l-0.01-0.336L12.974,6.868
			L12.974,6.868z M12.995,7.557l0.01,0.336l-0.132,0.081l-0.011-0.335L12.995,7.557L12.995,7.557z M13.007,7.979l0.012,0.337
			l-0.134,0.085l-0.011-0.338L13.007,7.979L13.007,7.979z M13.022,8.436l0.003,0.101C13.012,8.503,13.012,8.468,13.022,8.436
			L13.022,8.436z M13.094,10.808l0.011,0.348l-0.134,0.095l-0.012-0.349L13.094,10.808L13.094,10.808z M13.109,11.304l0.01,0.344
			l-0.134,0.093l-0.01-0.345L13.109,11.304L13.109,11.304z M13.122,11.737l0.011,0.346l-0.134,0.091l-0.011-0.346L13.122,11.737
			L13.122,11.737z M13.138,12.329l0.012,0.338c-0.04,0.025-0.085,0.054-0.135,0.088l-0.011-0.339
			c0.051-0.035,0.092-0.061,0.125-0.08L13.138,12.329L13.138,12.329z M13.158,12.923l0.01,0.352
			c-0.035,0.026-0.073,0.052-0.112,0.079l-0.021,0.015l-0.011-0.35C13.071,12.985,13.114,12.954,13.158,12.923L13.158,12.923z
			 M13.171,13.378l0.009,0.344l-0.132,0.09l-0.012-0.343L13.171,13.378L13.171,13.378z M13.187,13.904l0.01,0.345l-0.134,0.088
			l-0.01-0.344l0.073-0.048L13.187,13.904L13.187,13.904z M13.202,14.426l0.011,0.354l-0.133,0.103l-0.011-0.356L13.202,14.426
			L13.202,14.426z M13.215,14.875c-0.047,0.034-0.091,0.063-0.133,0.093l0.01,0.344l0.092-0.062l-0.092,0.062l0.011,0.345
			l0.133-0.093L13.215,14.875L13.215,14.875z M13.239,15.644l0.012,0.371c-0.041,0.034-0.086,0.066-0.134,0.104l-0.01-0.362
			C13.159,15.714,13.204,15.677,13.239,15.644L13.239,15.644z M13.253,16.122l0.01,0.344l-0.134,0.091l-0.01-0.345L13.253,16.122
			L13.253,16.122z M13.27,16.649l0.01,0.344l-0.134,0.09l-0.012-0.344L13.27,16.649L13.27,16.649z M13.281,17.06
			c-0.042,0.029-0.088,0.058-0.133,0.087l0.021,0.687l0.132-0.093L13.281,17.06L13.281,17.06z M13.306,17.884l0.011,0.348
			l-0.134,0.092l-0.011-0.347L13.306,17.884L13.306,17.884z M13.318,18.264c-0.043,0.027-0.088,0.057-0.134,0.086l0.011,0.34
			c0.045-0.03,0.09-0.059,0.132-0.087L13.318,18.264L13.318,18.264z M13.331,18.709l0.012,0.346
			c-0.043,0.029-0.088,0.06-0.134,0.092L13.198,18.8C13.244,18.768,13.29,18.737,13.331,18.709L13.331,18.709z M13.344,19.14
			c-0.043,0.028-0.089,0.058-0.133,0.088l0.01,0.344c0.044-0.031,0.091-0.062,0.133-0.09L13.344,19.14L13.344,19.14z M13.361,19.69
			l0.012,0.347l-0.136,0.092l-0.009-0.346L13.361,19.69L13.361,19.69z M13.376,20.222l0.011,0.348l-0.135,0.091l-0.009-0.347
			L13.376,20.222z M12.65,0.559l0.018,0.65c-0.128,0.084-0.26,0.17-0.391,0.256l-0.021-0.653L12.65,0.559L12.65,0.559z
			 M12.674,1.392c-0.131,0.085-0.262,0.171-0.393,0.258l0.01,0.341c0.131-0.087,0.263-0.173,0.393-0.256L12.674,1.392L12.674,1.392z
			 M12.69,1.919l0.01,0.342l-0.393,0.258l-0.01-0.341L12.69,1.919L12.69,1.919z M12.703,2.328l-0.392,0.247l0.009,0.337l0.392-0.247
			L12.703,2.328L12.703,2.328z M12.712,2.672l0.009,0.341c-0.13,0.085-0.26,0.169-0.392,0.254l-0.011-0.34
			C12.451,2.841,12.583,2.756,12.712,2.672L12.712,2.672z M12.726,3.157c-0.13,0.085-0.261,0.168-0.391,0.251l0.01,0.338
			c0.13-0.083,0.262-0.167,0.391-0.25L12.726,3.157L12.726,3.157z M12.739,3.579l0.012,0.338l-0.394,0.25l-0.011-0.339L12.739,3.579
			L12.739,3.579z M12.826,6.433l0.01,0.335c-0.154,0.093-0.286,0.175-0.393,0.243l-0.01-0.336
			C12.575,6.586,12.705,6.506,12.826,6.433L12.826,6.433z M12.842,6.951c-0.138,0.084-0.269,0.164-0.395,0.243l0.01,0.335
			c0.126-0.078,0.257-0.158,0.395-0.242L12.842,6.951L12.842,6.951z M12.862,7.639l0.011,0.335
			c-0.139,0.083-0.269,0.163-0.395,0.241l-0.01-0.336C12.594,7.803,12.726,7.722,12.862,7.639L12.862,7.639z M12.875,8.063
			l-0.393,0.249l0.01,0.33c0.013-0.003,0.025-0.009,0.037-0.018l0.356-0.224L12.875,8.063L12.875,8.063z M12.959,10.901l0.012,0.349
			l-0.058,0.039l-0.335,0.233l-0.011-0.349l0.179-0.124L12.959,10.901L12.959,10.901z M12.975,11.396l-0.393,0.268l0.011,0.346
			l0.392-0.269L12.975,11.396L12.975,11.396z M12.988,11.828l0.011,0.346c-0.137,0.093-0.267,0.183-0.392,0.269l-0.012-0.346
			C12.721,12.01,12.853,11.922,12.988,11.828L12.988,11.828z M13.004,12.416c-0.097,0.062-0.229,0.148-0.392,0.255l0.01,0.344
			l0.147-0.099c0.092-0.06,0.175-0.115,0.245-0.161L13.004,12.416L13.004,12.416z M13.024,13.019l0.011,0.35
			c-0.12,0.084-0.251,0.175-0.393,0.271l-0.011-0.347c0.091-0.063,0.177-0.122,0.258-0.177
			C12.936,13.081,12.981,13.049,13.024,13.019L13.024,13.019z M13.037,13.469L13.037,13.469c-0.128,0.087-0.26,0.174-0.39,0.262
			l0.008,0.341c0.131-0.085,0.262-0.172,0.394-0.26L13.037,13.469L13.037,13.469z M13.053,13.993l0.01,0.344
			c-0.131,0.088-0.262,0.175-0.392,0.26l-0.01-0.342C12.792,14.168,12.924,14.081,13.053,13.993L13.053,13.993z M13.069,14.526
			c-0.154,0.117-0.286,0.217-0.392,0.294l0.012,0.354l0.002-0.004c0.087-0.063,0.219-0.16,0.389-0.288L13.069,14.526L13.069,14.526z
			 M13.083,14.968l0.01,0.344l-0.09,0.063l0.09-0.063l0.011,0.345c-0.113,0.077-0.246,0.167-0.392,0.267l-0.011-0.345
			c0.115-0.078,0.217-0.148,0.302-0.204c-0.073,0.047-0.132,0.082-0.173,0.105c-0.033,0.018-0.077,0.043-0.13,0.074l-0.01-0.329
			l0.001-0.001C12.764,15.183,12.9,15.095,13.083,14.968L13.083,14.968z M13.107,15.757c-0.099,0.078-0.223,0.177-0.373,0.289
			l-0.02,0.014l0.012,0.355c0.063-0.048,0.124-0.096,0.182-0.137c0.077-0.057,0.146-0.109,0.209-0.159L13.107,15.757L13.107,15.757z
			 M13.12,16.212l0.01,0.345l-0.392,0.264l-0.01-0.344L13.12,16.212L13.12,16.212z M13.134,16.739l-0.392,0.263l0.011,0.346
			l0.393-0.265L13.134,16.739L13.134,16.739z M13.148,17.146l0.021,0.687c-0.126,0.088-0.258,0.18-0.395,0.274l-0.008-0.348
			c0.102-0.072,0.201-0.14,0.297-0.208c-0.096,0.065-0.196,0.132-0.298,0.2l-0.01-0.343C12.892,17.317,13.023,17.229,13.148,17.146
			L13.148,17.146z M13.172,17.977c-0.122,0.087-0.253,0.177-0.392,0.274l0.01,0.347c0.139-0.097,0.271-0.187,0.393-0.274
			L13.172,17.977L13.172,17.977z M13.184,18.35l0.011,0.34c-0.127,0.083-0.257,0.169-0.394,0.26l-0.01-0.344
			C12.929,18.514,13.06,18.429,13.184,18.35L13.184,18.35z M13.198,18.8c-0.12,0.083-0.251,0.176-0.393,0.275l0.011,0.349
			c0.14-0.099,0.271-0.192,0.393-0.277L13.198,18.8L13.198,18.8z M13.211,19.228l0.01,0.344c-0.062,0.041-0.126,0.084-0.191,0.129
			c-0.066,0.045-0.132,0.089-0.201,0.138l-0.011-0.347l0.048-0.033C12.987,19.377,13.102,19.3,13.211,19.228L13.211,19.228z
			 M13.228,19.783l-0.394,0.271l0.011,0.346l0.392-0.271L13.228,19.783L13.228,19.783z M13.244,20.313l0.009,0.347l-0.311,0.218
			c-0.024,0.016-0.054,0.023-0.082,0.025l-0.01-0.317L13.244,20.313L13.244,20.313z M12.562,11.026
			c0.063-0.044,0.128-0.091,0.197-0.141c0.065-0.047,0.08-0.138,0.035-0.203c-0.048-0.064-0.14-0.08-0.205-0.033l-0.036,0.027
			L12.562,11.026L12.562,11.026z M12.429,6.614l0.127-0.077c0.067-0.044,0.088-0.133,0.045-0.202
			c-0.039-0.062-0.115-0.083-0.182-0.055L12.429,6.614L12.429,6.614z M12.248,0.536l-0.011-0.339l0.032-0.022
			c0.069-0.042,0.159-0.021,0.202,0.046c0.043,0.066,0.023,0.157-0.045,0.2L12.248,0.536z M12.237,0.197l0.011,0.339l-0.241,0.155
			l-0.011-0.339L12.237,0.197L12.237,0.197z M12.255,0.812l0.021,0.653l-0.24,0.157l-0.021-0.654L12.255,0.812L12.255,0.812z
			 M12.282,1.649l0.01,0.341l-0.24,0.156L12.04,1.805L12.282,1.649L12.282,1.649z M12.297,2.178l0.01,0.341l-0.241,0.159
			l-0.01-0.343L12.297,2.178L12.297,2.178z M12.311,2.575l-0.243,0.149l0.01,0.339l0.242-0.151L12.311,2.575L12.311,2.575z
			 M12.319,2.927l0.011,0.34l-0.241,0.157l-0.01-0.343L12.319,2.927L12.319,2.927z M12.335,3.408L12.093,3.56l0.011,0.339
			l0.241-0.152L12.335,3.408L12.335,3.408z M12.346,3.828l0.011,0.339l-0.033,0.021c-0.067,0.042-0.159,0.022-0.202-0.046
			c-0.004-0.008-0.009-0.017-0.011-0.024l-0.004-0.1c0.01-0.029,0.031-0.06,0.06-0.075L12.346,3.828L12.346,3.828z M12.419,6.28
			l0.01,0.334l-0.239,0.15l-0.012-0.337C12.312,6.345,12.336,6.33,12.4,6.29C12.407,6.285,12.415,6.282,12.419,6.28L12.419,6.28z
			 M12.433,6.675l-0.242,0.147l0.01,0.337l0.113-0.071l0.129-0.077L12.433,6.675L12.433,6.675z M12.448,7.194l0.01,0.335
			l-0.24,0.149l-0.012-0.336L12.448,7.194L12.448,7.194z M12.468,7.879l0.01,0.336c-0.082,0.049-0.163,0.098-0.239,0.146
			l-0.011-0.335C12.305,7.978,12.386,7.93,12.468,7.879L12.468,7.879z M12.482,8.313L12.374,8.38
			c-0.068,0.043-0.088,0.134-0.045,0.2c0.034,0.057,0.103,0.08,0.163,0.063L12.482,8.313L12.482,8.313z M12.553,10.677l0.009,0.35
			l-0.067,0.053c-0.071,0.051-0.128,0.094-0.171,0.126l-0.002,0.001l-0.01-0.356l0.011-0.008
			C12.38,10.801,12.458,10.745,12.553,10.677L12.553,10.677z M12.568,11.174l-0.206,0.146l-0.033,0.024l0.01,0.347
			c0.069-0.048,0.135-0.093,0.189-0.134l0.051-0.034L12.568,11.174L12.568,11.174z M12.583,11.663l0.011,0.346l-0.24,0.163
			l-0.012-0.345L12.583,11.663L12.583,11.663z M12.595,12.097c-0.082,0.056-0.162,0.11-0.239,0.165l0.01,0.347
			c0.078-0.055,0.157-0.109,0.241-0.166L12.595,12.097L12.595,12.097z M12.613,12.671l0.01,0.344l-0.24,0.16l-0.01-0.343
			c0.087-0.059,0.166-0.109,0.236-0.158L12.613,12.671L12.613,12.671z M12.631,13.292l0.011,0.347
			c-0.077,0.052-0.158,0.106-0.242,0.164l-0.009-0.346C12.473,13.398,12.556,13.346,12.631,13.292L12.631,13.292z M12.647,13.73
			c-0.083,0.053-0.162,0.106-0.243,0.159l0.01,0.341c0.081-0.053,0.161-0.105,0.241-0.159L12.647,13.73L12.647,13.73z
			 M12.662,14.255l0.01,0.342c-0.081,0.054-0.16,0.105-0.241,0.158l-0.01-0.341C12.5,14.36,12.582,14.308,12.662,14.255
			L12.662,14.255z M12.677,14.82l0.012,0.354c-0.063,0.046-0.145,0.103-0.242,0.168l-0.009-0.347
			c0.029-0.022,0.058-0.041,0.083-0.06C12.562,14.905,12.615,14.867,12.677,14.82L12.677,14.82z M12.69,15.225
			c-0.063,0.034-0.144,0.081-0.242,0.142l0.011,0.336c0.094-0.06,0.175-0.109,0.241-0.148L12.69,15.225L12.69,15.225z
			 M12.701,15.578l0.011,0.345l-0.241,0.165l-0.01-0.345L12.701,15.578L12.701,15.578z M12.714,16.06
			c-0.074,0.058-0.155,0.115-0.24,0.179l0.011,0.353c0.083-0.062,0.165-0.119,0.241-0.176L12.714,16.06L12.714,16.06z
			 M12.728,16.477l0.01,0.344l-0.242,0.162l-0.009-0.344L12.728,16.477L12.728,16.477z M12.743,17.002l0.011,0.346l-0.24,0.161
			l-0.011-0.343L12.743,17.002L12.743,17.002z M12.756,17.409c-0.079,0.053-0.16,0.106-0.241,0.161l0.011,0.345
			c0.08-0.054,0.161-0.11,0.24-0.163L12.756,17.409L12.756,17.409z M12.767,17.76l0.008,0.348c-0.077,0.056-0.157,0.111-0.238,0.169
			l-0.013-0.349C12.607,17.871,12.688,17.814,12.767,17.76L12.767,17.76z M12.781,18.251l-0.24,0.166l0.011,0.349l0.038-0.027
			l0.201-0.141L12.781,18.251L12.781,18.251z M12.792,18.605l0.01,0.344l-0.083,0.058c-0.051,0.035-0.104,0.069-0.156,0.105
			l-0.011-0.346l0.004-0.001C12.634,18.71,12.713,18.658,12.792,18.605L12.792,18.605z M12.805,19.075
			c-0.078,0.056-0.157,0.112-0.24,0.171l0.011,0.351c0.083-0.06,0.164-0.117,0.24-0.173L12.805,19.075L12.805,19.075z
			 M12.818,19.491l0.011,0.347c-0.079,0.053-0.158,0.106-0.24,0.164l-0.011-0.348C12.662,19.599,12.74,19.543,12.818,19.491
			L12.818,19.491z M12.834,20.054l0.011,0.346l-0.24,0.166l-0.01-0.347L12.834,20.054L12.834,20.054z M12.85,20.586l0.01,0.317
			c-0.048,0-0.093-0.022-0.121-0.063c-0.046-0.067-0.029-0.157,0.036-0.202L12.85,20.586L12.85,20.586z M11.994,0.271
			c0.012-0.031,0.011-0.066-0.003-0.1L11.994,0.271z M11.991,0.171l0.003,0.1c-0.01,0.031-0.03,0.06-0.058,0.078l-0.608,0.391
			l-0.01-0.34l0.46-0.296c0.068-0.045,0.157-0.024,0.201,0.042C11.983,0.154,11.988,0.162,11.991,0.171L11.991,0.171z M11.996,0.353
			c-0.223,0.143-0.446,0.288-0.665,0.431l0.01,0.34c0.22-0.144,0.443-0.288,0.666-0.432L11.996,0.353L11.996,0.353z M12.015,0.968
			l0.021,0.654c-0.221,0.144-0.446,0.291-0.668,0.44l-0.021-0.667C11.565,1.256,11.79,1.111,12.015,0.968L12.015,0.968z
			 M12.04,1.805c-0.219,0.145-0.442,0.29-0.666,0.439l0.011,0.342c0.224-0.147,0.446-0.294,0.667-0.439L12.04,1.805L12.04,1.805z
			 M12.056,2.335l0.01,0.343l-0.667,0.438l-0.01-0.34L12.056,2.335L12.056,2.335z M12.068,2.725c-0.222,0.14-0.444,0.28-0.667,0.422
			l0.01,0.338c0.223-0.141,0.445-0.281,0.667-0.421L12.068,2.725L12.068,2.725z M12.079,3.081c-0.222,0.146-0.444,0.292-0.667,0.438
			l0.011,0.341c0.218-0.144,0.441-0.29,0.666-0.437L12.079,3.081L12.079,3.081z M12.093,3.56l0.011,0.339
			c-0.161,0.104-0.321,0.208-0.481,0.31c-0.062,0.041-0.146,0.026-0.191-0.031l-0.004-0.175c0.009-0.016,0.022-0.029,0.04-0.039
			C11.674,3.831,11.881,3.696,12.093,3.56L12.093,3.56z M12.107,4.018c-0.01,0.032-0.01,0.069,0.004,0.1L12.107,4.018L12.107,4.018z
			 M12.178,6.428l0.012,0.337L12.054,6.85l-0.008,0.005l-0.482,0.3c-0.015,0.01-0.028,0.017-0.043,0.02l-0.01-0.33l0.38-0.236
			c0.004-0.002,0.007-0.003,0.009-0.005L12.178,6.428L12.178,6.428z M12.191,6.822l-0.028,0.02c-0.24,0.147-0.457,0.282-0.64,0.396
			l0.011,0.328c0.014-0.003,0.029-0.009,0.042-0.018c0.183-0.115,0.395-0.246,0.625-0.39L12.191,6.822L12.191,6.822z M12.206,7.343
			l0.012,0.336c-0.241,0.149-0.451,0.28-0.625,0.39c-0.015,0.011-0.028,0.016-0.044,0.019l-0.009-0.33
			C11.726,7.641,11.952,7.501,12.206,7.343L12.206,7.343z M12.228,8.025c-0.235,0.143-0.447,0.269-0.632,0.375
			c-0.016,0.008-0.026,0.02-0.037,0.031l0.006,0.195c0.045,0.047,0.118,0.061,0.178,0.026c0.148-0.086,0.313-0.186,0.496-0.293
			L12.228,8.025L12.228,8.025z M12.312,10.85l0.01,0.356c-0.049,0.039-0.129,0.097-0.236,0.17c-0.109,0.076-0.239,0.167-0.392,0.271
			c-0.013,0.008-0.024,0.015-0.036,0.018l-0.012-0.339c0.105-0.071,0.196-0.135,0.273-0.188c0.103-0.074,0.18-0.128,0.227-0.162
			C12.184,10.945,12.239,10.903,12.312,10.85L12.312,10.85z M12.329,11.344c-0.066,0.045-0.161,0.111-0.288,0.196
			c-0.089,0.062-0.218,0.149-0.38,0.26l0.011,0.339c0.012-0.005,0.025-0.011,0.035-0.02c0.167-0.112,0.331-0.224,0.499-0.338
			l0.133-0.091L12.329,11.344L12.329,11.344z M12.341,11.827l0.012,0.345c-0.228,0.156-0.438,0.301-0.63,0.435
			c-0.011,0.007-0.025,0.014-0.037,0.018l-0.011-0.339C11.873,12.15,12.096,11.997,12.341,11.827L12.341,11.827z M12.356,12.262
			c-0.244,0.166-0.468,0.322-0.668,0.463l0.011,0.341c0.013-0.004,0.026-0.011,0.038-0.019c0.189-0.134,0.4-0.281,0.629-0.438
			L12.356,12.262L12.356,12.262z M12.373,12.832l0.01,0.343c-0.192,0.13-0.405,0.271-0.631,0.425
			c-0.012,0.009-0.023,0.013-0.037,0.018l-0.009-0.338C11.959,13.108,12.183,12.958,12.373,12.832L12.373,12.832z M12.391,13.457
			c-0.204,0.139-0.429,0.289-0.668,0.448l0.011,0.336c0.012-0.003,0.023-0.009,0.035-0.016c0.227-0.15,0.438-0.293,0.631-0.423
			L12.391,13.457L12.391,13.457z M12.404,13.89l0.01,0.341c-0.209,0.137-0.421,0.274-0.634,0.413
			c-0.01,0.006-0.021,0.011-0.033,0.015l-0.011-0.334C11.963,14.178,12.185,14.032,12.404,13.89L12.404,13.89z M12.42,14.414
			c-0.22,0.143-0.441,0.286-0.668,0.433l0.01,0.336c0.012-0.004,0.023-0.01,0.033-0.016c0.213-0.137,0.424-0.275,0.635-0.412
			L12.42,14.414L12.42,14.414z M12.438,14.996l0.009,0.347c-0.035,0.024-0.073,0.05-0.115,0.078
			c-0.147,0.101-0.321,0.217-0.517,0.344c-0.011,0.006-0.023,0.012-0.034,0.017l-0.011-0.336c0.15-0.099,0.286-0.188,0.401-0.266
			C12.273,15.109,12.363,15.048,12.438,14.996L12.438,14.996z M12.448,15.366c-0.045,0.027-0.098,0.06-0.151,0.093
			c-0.128,0.08-0.304,0.192-0.516,0.328l0.01,0.335c0.012-0.004,0.023-0.01,0.033-0.017c0.225-0.146,0.435-0.277,0.626-0.399
			l0.009-0.004L12.448,15.366L12.448,15.366z M12.46,15.743l-0.619,0.422l-0.049,0.031l0.01,0.339
			c0.013-0.006,0.025-0.011,0.036-0.019l0.166-0.112l0.466-0.316L12.46,15.743L12.46,15.743z M12.474,16.238l0.011,0.353
			c-0.189,0.137-0.399,0.288-0.628,0.449c-0.012,0.008-0.025,0.015-0.038,0.02l-0.011-0.343
			C12.052,16.544,12.278,16.382,12.474,16.238L12.474,16.238z M12.487,16.639c-0.218,0.146-0.44,0.296-0.668,0.449l0.012,0.345
			c0.226-0.152,0.447-0.303,0.665-0.45L12.487,16.639L12.487,16.639z M12.502,17.166l0.011,0.343
			c-0.22,0.147-0.442,0.298-0.668,0.451l-0.01-0.344C12.063,17.463,12.285,17.313,12.502,17.166L12.502,17.166z M12.515,17.57
			c-0.205,0.138-0.419,0.285-0.642,0.438l-0.026,0.019l0.011,0.346l0.18-0.123c0.168-0.115,0.331-0.227,0.488-0.334L12.515,17.57
			L12.515,17.57z M12.524,17.928c-0.118,0.086-0.241,0.173-0.368,0.263c-0.098,0.07-0.196,0.14-0.297,0.213l0.011,0.35
			c0.155-0.111,0.307-0.22,0.455-0.326l0.212-0.15L12.524,17.928L12.524,17.928z M12.541,18.417l0.011,0.349l-0.083,0.057
			l0.083-0.056l0.011,0.346c-0.214,0.146-0.437,0.301-0.667,0.464l-0.021-0.69c0.188-0.133,0.372-0.261,0.549-0.384L12.541,18.417
			L12.541,18.417z M12.565,19.246c-0.207,0.15-0.432,0.312-0.666,0.483l0.013,0.353c0.231-0.17,0.454-0.334,0.664-0.485
			L12.565,19.246L12.565,19.246z M12.578,19.654l0.011,0.348c-0.211,0.146-0.436,0.302-0.666,0.465l-0.011-0.35
			C12.146,19.953,12.369,19.798,12.578,19.654L12.578,19.654z M12.595,20.219c-0.223,0.153-0.444,0.307-0.667,0.462l0.011,0.347
			c0.222-0.155,0.443-0.309,0.666-0.462L12.595,20.219L12.595,20.219z M11.644,11.236c0.013-0.004,0.026-0.009,0.037-0.018
			l0.222-0.152l0.237-0.16c0.066-0.045,0.083-0.136,0.037-0.202c-0.045-0.066-0.135-0.084-0.201-0.038l-0.236,0.162l-0.106,0.071
			L11.644,11.236L11.644,11.236z M11.314,0.26c0.041-0.049,0.048-0.12,0.011-0.176c-0.006-0.008-0.011-0.015-0.017-0.021
			L11.314,0.26z M11.308,0.063l0.006,0.196c-0.01,0.01-0.019,0.018-0.03,0.026c-0.326,0.215-0.646,0.429-0.962,0.639l-0.011-0.344
			c0.266-0.177,0.537-0.358,0.81-0.538C11.181,0.003,11.26,0.014,11.308,0.063L11.308,0.063z M11.318,0.399
			c-0.313,0.2-0.646,0.417-0.992,0.641l0.01,0.34c0.304-0.196,0.634-0.41,0.992-0.641L11.318,0.399L11.318,0.399z M11.331,0.783
			c-0.338,0.219-0.672,0.436-0.994,0.647l0.012,0.342c0.321-0.213,0.654-0.431,0.992-0.649L11.331,0.783L11.331,0.783z
			 M11.348,1.396l0.021,0.667c-0.329,0.216-0.663,0.437-0.992,0.657l-0.011-0.345l0.186-0.121l-0.104,0.065l-0.082,0.053
			l-0.011-0.339C10.671,1.831,11.005,1.617,11.348,1.396L11.348,1.396z M11.374,2.244c-0.33,0.218-0.662,0.438-0.992,0.657
			l0.01,0.345c0.33-0.221,0.663-0.441,0.993-0.66L11.374,2.244L11.374,2.244z M11.389,2.776l0.01,0.34l-0.221,0.146l-0.771,0.507
			L10.397,3.43l0.621-0.411L11.389,2.776L11.389,2.776z M11.401,3.146l0.01,0.338c-0.334,0.211-0.666,0.42-0.993,0.628l-0.01-0.338
			C10.735,3.566,11.067,3.354,11.401,3.146L11.401,3.146z M11.412,3.52c-0.272,0.178-0.543,0.355-0.809,0.531
			c-0.066,0.047-0.085,0.135-0.042,0.201c0.045,0.068,0.135,0.087,0.202,0.043c0.214-0.143,0.435-0.289,0.659-0.435L11.412,3.52
			L11.412,3.52z M11.427,4.002c-0.035,0.047-0.037,0.11-0.005,0.161c0.004,0.005,0.007,0.009,0.009,0.014L11.427,4.002L11.427,4.002
			z M11.511,6.844l0.01,0.33c-0.06,0.014-0.124-0.01-0.157-0.066C11.321,7.04,11.341,6.95,11.41,6.908L11.511,6.844L11.511,6.844z
			 M11.523,7.238l0.011,0.328c-0.06,0.014-0.124-0.009-0.158-0.063c-0.043-0.068-0.022-0.158,0.045-0.201L11.523,7.238L11.523,7.238
			z M11.54,7.757l0.009,0.33c-0.059,0.015-0.124-0.009-0.158-0.062c-0.043-0.07-0.021-0.159,0.047-0.202L11.54,7.757L11.54,7.757z
			 M11.559,8.432l0.006,0.195C11.557,8.619,11.549,8.61,11.542,8.6C11.511,8.544,11.519,8.479,11.559,8.432L11.559,8.432z
			 M11.633,10.899l0.011,0.337c-0.061,0.021-0.129-0.001-0.167-0.056c-0.044-0.066-0.026-0.156,0.04-0.201L11.633,10.899
			L11.633,10.899z M11.646,11.325l0.012,0.339c-0.062,0.021-0.13-0.001-0.167-0.057c-0.047-0.066-0.027-0.157,0.039-0.202
			L11.646,11.325L11.646,11.325z M11.661,11.8l0.011,0.339c-0.061,0.02-0.131-0.002-0.166-0.057
			c-0.046-0.068-0.028-0.158,0.038-0.203L11.661,11.8L11.661,11.8z M11.675,12.285l0.011,0.339c-0.062,0.02-0.129-0.001-0.165-0.055
			c-0.047-0.067-0.031-0.158,0.036-0.203L11.675,12.285L11.675,12.285z M11.688,12.725l0.011,0.341
			c-0.059,0.021-0.126,0.001-0.165-0.054c-0.046-0.065-0.029-0.157,0.034-0.204L11.688,12.725L11.688,12.725z M11.706,13.279
			l0.009,0.338c-0.061,0.02-0.128-0.002-0.165-0.059c-0.045-0.066-0.027-0.157,0.041-0.202L11.706,13.279L11.706,13.279z
			 M11.723,13.905l0.011,0.336c-0.061,0.021-0.13-0.001-0.166-0.058c-0.045-0.066-0.027-0.157,0.041-0.201L11.723,13.905
			L11.723,13.905z M11.736,14.324l0.011,0.334c-0.063,0.021-0.131-0.001-0.167-0.058c-0.045-0.069-0.025-0.158,0.041-0.203
			L11.736,14.324L11.736,14.324z M11.752,14.847l0.01,0.336c-0.062,0.02-0.131-0.002-0.168-0.06
			c-0.043-0.068-0.024-0.159,0.043-0.202L11.752,14.847L11.752,14.847z M11.77,15.445l0.011,0.336
			c-0.061,0.02-0.131-0.002-0.168-0.059c-0.044-0.068-0.024-0.159,0.042-0.202L11.77,15.445L11.77,15.445z M11.781,15.787
			l-0.116,0.075c-0.066,0.043-0.085,0.132-0.041,0.201c0.037,0.056,0.105,0.079,0.167,0.059L11.781,15.787L11.781,15.787z
			 M11.792,16.196l0.01,0.339c-0.06,0.019-0.128-0.003-0.165-0.057c-0.044-0.066-0.028-0.157,0.038-0.201L11.792,16.196
			L11.792,16.196z M11.808,16.717l0.011,0.343c-0.012,0.004-0.023,0.006-0.036,0.007c-0.011,0.022-0.028,0.044-0.051,0.061
			c-0.281,0.198-0.586,0.411-0.904,0.631l-0.009-0.347c0.262-0.184,0.512-0.358,0.747-0.521c0.021-0.017,0.05-0.025,0.073-0.027
			c0.011-0.023,0.028-0.045,0.049-0.062L11.808,16.717L11.808,16.717z M11.819,17.088c-0.324,0.219-0.657,0.444-0.991,0.672
			l0.012,0.344c0.332-0.227,0.664-0.45,0.991-0.671L11.819,17.088L11.819,17.088z M11.835,17.616
			c-0.326,0.22-0.657,0.444-0.99,0.671l0.01,0.344c0.331-0.227,0.665-0.451,0.99-0.671L11.835,17.616L11.835,17.616z M11.847,18.026
			l0.011,0.346c-0.318,0.22-0.651,0.449-0.99,0.687l-0.01-0.349C11.197,18.474,11.53,18.243,11.847,18.026L11.847,18.026z
			 M11.859,18.403l0.011,0.35c-0.319,0.229-0.651,0.471-0.989,0.715l-0.011-0.351C11.208,18.87,11.542,18.63,11.859,18.403
			L11.859,18.403z M11.874,18.886c-0.317,0.224-0.65,0.458-0.99,0.698l0.021,0.698c0.338-0.244,0.673-0.483,0.991-0.706
			L11.874,18.886L11.874,18.886z M11.899,19.729l0.013,0.353c-0.289,0.21-0.592,0.432-0.9,0.66L10.92,20.81l-0.011-0.354
			C11.252,20.202,11.586,19.958,11.899,19.729L11.899,19.729z M11.912,20.117l0.011,0.35c-0.299,0.209-0.611,0.43-0.928,0.656
			c-0.02,0.013-0.042,0.022-0.064,0.025l-0.01-0.33C11.265,20.572,11.597,20.338,11.912,20.117L11.912,20.117z M11.928,20.681
			l-0.197,0.136c-0.065,0.045-0.082,0.138-0.037,0.202c0.047,0.066,0.136,0.084,0.202,0.037l0.043-0.028L11.928,20.681
			L11.928,20.681z M10.813,17.217l0.094-0.064c0.065-0.044,0.082-0.134,0.038-0.202c-0.033-0.047-0.089-0.069-0.142-0.061
			L10.813,17.217L10.813,17.217z M10.31,0.511c0.119-0.082,0.237-0.165,0.356-0.247c0.063-0.045,0.08-0.135,0.035-0.2
			C10.656-0.004,10.566-0.02,10.5,0.025L10.3,0.164L10.31,0.511z M10.3,0.164l0.01,0.347l-0.249,0.17l-0.009-0.345L10.3,0.164
			L10.3,0.164z M10.311,0.581l-0.248,0.165l0.012,0.345l0.247-0.166L10.311,0.581L10.311,0.581z M10.326,1.04l0.01,0.34
			l-0.249,0.161L10.077,1.2L10.326,1.04L10.326,1.04z M10.336,1.431l-0.248,0.162L10.1,1.935l0.248-0.162L10.336,1.431L10.336,1.431
			z M10.355,2.033l0.011,0.339l-0.247,0.16l-0.012-0.341l0.185-0.117L10.355,2.033L10.355,2.033z M10.366,2.375l-0.248,0.167
			l0.011,0.342l0.248-0.164L10.366,2.375L10.366,2.375z M10.381,2.901l0.01,0.345l-0.246,0.166l-0.011-0.346L10.381,2.901
			L10.381,2.901z M10.397,3.43l0.011,0.339l-0.209,0.138l0.209-0.132l0.01,0.338c-0.082,0.055-0.165,0.106-0.247,0.158L10.15,3.592
			L10.397,3.43L10.397,3.43z M10.803,16.89l0.01,0.327l-0.247,0.168l-0.012-0.343l0.189-0.13
			C10.761,16.898,10.782,16.893,10.803,16.89L10.803,16.89z M10.819,17.411l0.009,0.347l-0.102,0.069l0.102-0.067l0.012,0.344
			l-0.248,0.168l-0.021-0.69L10.819,17.411L10.819,17.411z M10.845,18.287l0.01,0.344l-0.248,0.168l-0.011-0.344L10.845,18.287
			L10.845,18.287z M10.858,18.71l-0.248,0.174l0.01,0.348l0.248-0.173L10.858,18.71L10.858,18.71z M10.87,19.117l0.011,0.351
			l-0.248,0.183l-0.011-0.353L10.87,19.117L10.87,19.117z M10.883,19.584l-0.247,0.175l0.009,0.349l0.154-0.108l-0.154,0.111
			l0.012,0.352c0.084-0.06,0.166-0.12,0.247-0.18L10.883,19.584L10.883,19.584z M10.91,20.456l0.011,0.354l-0.247,0.181
			l-0.011-0.353l0.175-0.129L10.91,20.456L10.91,20.456z M10.92,20.818l-0.095,0.067c-0.067,0.047-0.081,0.138-0.033,0.203
			c0.031,0.046,0.086,0.068,0.138,0.06L10.92,20.818z M10.052,0.336l0.009,0.345L9.714,0.92L9.706,0.573
			C9.821,0.494,9.936,0.414,10.052,0.336L10.052,0.336z M10.063,0.746L9.717,0.978l0.01,0.344l0.348-0.23L10.063,0.746L10.063,0.746
			z M10.077,1.2l0.01,0.341L9.741,1.766L9.73,1.427L10.077,1.2L10.077,1.2z M10.088,1.593C9.973,1.671,9.856,1.747,9.742,1.822
			l0.011,0.343c0.114-0.075,0.23-0.152,0.348-0.23L10.088,1.593L10.088,1.593z M10.107,2.191l0.012,0.341L9.77,2.754L9.76,2.415
			L10.107,2.191L10.107,2.191z M10.118,2.542c-0.116,0.077-0.23,0.155-0.347,0.232l0.01,0.344c0.115-0.078,0.232-0.155,0.348-0.234
			L10.118,2.542L10.118,2.542z M10.134,3.066l0.011,0.346c-0.117,0.076-0.232,0.155-0.349,0.233L9.786,3.302
			C9.901,3.223,10.017,3.145,10.134,3.066L10.134,3.066z M10.15,3.592L9.802,3.82l0.021,0.674c0.114-0.074,0.231-0.148,0.348-0.224
			L10.15,3.592L10.15,3.592z M10.554,17.042l0.012,0.343l-0.349,0.237l-0.01-0.345L10.554,17.042L10.554,17.042z M10.571,17.581
			c-0.114,0.079-0.231,0.159-0.347,0.239l0.021,0.688l0.347-0.236L10.571,17.581L10.571,17.581z M10.596,18.455l0.011,0.344
			l-0.347,0.237l-0.01-0.345L10.596,18.455L10.596,18.455z M10.61,18.884c-0.115,0.08-0.231,0.162-0.348,0.242l0.01,0.349
			l0.348-0.243L10.61,18.884L10.61,18.884z M10.622,19.298l0.011,0.353l-0.348,0.252l-0.008-0.353
			C10.393,19.467,10.506,19.382,10.622,19.298L10.622,19.298z M10.636,19.759l-0.347,0.245l0.01,0.349l0.346-0.245L10.636,19.759
			L10.636,19.759z M10.645,20.11l0.012,0.352c-0.115,0.084-0.23,0.169-0.346,0.253L10.3,20.363
			C10.417,20.276,10.532,20.194,10.645,20.11L10.645,20.11z M10.663,20.638l-0.345,0.253l-0.001,0.002l0.007,0.236
			c0.049,0.034,0.116,0.034,0.166-0.004l0.184-0.135L10.663,20.638L10.663,20.638z M10.203,17.17
			c0.063-0.046,0.077-0.132,0.034-0.197c-0.011-0.015-0.025-0.029-0.04-0.039L10.203,17.17L10.203,17.17z M9.702,0.464L9.95,0.29
			c0.065-0.048,0.082-0.139,0.035-0.205C9.939,0.02,9.849,0.004,9.784,0.05L9.691,0.115L9.702,0.464z M8.145,0.288
			c0.044-0.001,0.087,0.02,0.115,0.058C8.307,0.41,8.295,0.502,8.229,0.55L8.154,0.607L8.145,0.288L8.145,0.288z M9.691,0.115
			C9.182,0.475,8.668,0.834,8.172,1.181l0.01,0.347c0.498-0.347,1.012-0.706,1.52-1.063L9.691,0.115L9.691,0.115z M9.706,0.573
			L9.714,0.92C9.205,1.27,8.69,1.619,8.194,1.956l-0.01-0.344C8.682,1.272,9.196,0.923,9.706,0.573L9.706,0.573z M9.717,0.978
			l0.01,0.344L9.195,1.676C8.83,1.919,8.496,2.142,8.206,2.335l-0.01-0.344c0.252-0.167,0.533-0.354,0.837-0.558L9.717,0.978
			L9.717,0.978z M9.73,1.427l0.011,0.339L9.612,1.848C9.098,2.181,8.616,2.494,8.218,2.752l-0.01-0.34
			c0.354-0.229,0.775-0.504,1.246-0.809L9.73,1.427L9.73,1.427z M9.742,1.822C9.557,1.943,9.379,2.063,9.21,2.175
			C8.84,2.42,8.507,2.646,8.221,2.84l0.011,0.346c0.313-0.214,0.702-0.478,1.139-0.769C9.496,2.336,9.622,2.25,9.752,2.165
			L9.742,1.822L9.742,1.822z M9.76,2.415C9.171,2.791,8.643,3.13,8.238,3.388l0.01,0.338C8.63,3.482,9.159,3.145,9.77,2.754
			L9.76,2.415L9.76,2.415z M9.771,2.774l0.01,0.344c-0.397,0.267-0.789,0.53-1.164,0.784C8.498,3.983,8.376,4.066,8.26,4.146
			L8.25,3.802l0.203-0.14C8.876,3.376,9.319,3.076,9.771,2.774L9.771,2.774z M9.786,3.302l0.011,0.344
			C9.54,3.817,9.288,3.988,9.039,4.155c-0.261,0.178-0.517,0.353-0.762,0.52L8.266,4.329c0.198-0.135,0.401-0.273,0.608-0.415
			C9.172,3.713,9.477,3.507,9.786,3.302L9.786,3.302z M9.802,3.82C9.257,4.178,8.742,4.519,8.282,4.824L8.3,5.487
			c0.456-0.305,0.975-0.642,1.522-0.993L9.802,3.82L9.802,3.82z M10.197,16.934l0.006,0.236c-0.002,0.002-0.003,0.004-0.007,0.005
			c-0.386,0.256-0.937,0.623-1.513,1.006l-0.011-0.343c0.417-0.276,0.854-0.567,1.364-0.905
			C10.087,16.9,10.149,16.901,10.197,16.934L10.197,16.934z M10.208,17.277c-0.458,0.31-0.962,0.654-1.521,1.031l0.011,0.347
			c0.463-0.314,0.988-0.671,1.521-1.033L10.208,17.277L10.208,17.277z M10.224,17.82c-0.284,0.195-0.576,0.395-0.87,0.594
			c-0.218,0.147-0.436,0.296-0.649,0.44l0.009,0.345c0.121-0.082,0.242-0.165,0.364-0.246c-0.124,0.085-0.244,0.167-0.365,0.251
			l0.011,0.347c0.49-0.338,1.003-0.69,1.521-1.043L10.224,17.82L10.224,17.82z M10.25,18.691l0.01,0.345
			C9.739,19.39,9.227,19.743,8.74,20.08l-0.01-0.347C9.219,19.395,9.733,19.044,10.25,18.691L10.25,18.691z M10.262,19.126
			l0.01,0.349c-0.513,0.36-1.028,0.723-1.518,1.068l-0.011-0.349C9.235,19.847,9.752,19.483,10.262,19.126L10.262,19.126z
			 M10.277,19.55c-0.515,0.373-1.029,0.752-1.52,1.112l0.01,0.328c0.025-0.003,0.051-0.01,0.071-0.027
			c0.467-0.342,0.956-0.703,1.446-1.061L10.277,19.55L10.277,19.55z M10.29,20.004c-0.379,0.268-0.759,0.536-1.13,0.799
			c-0.065,0.047-0.082,0.139-0.035,0.204c0.046,0.065,0.137,0.081,0.202,0.034c0.323-0.229,0.65-0.461,0.973-0.688L10.29,20.004
			L10.29,20.004z M10.3,20.363c-0.225,0.161-0.449,0.327-0.672,0.491c-0.065,0.048-0.079,0.14-0.031,0.204
			c0.048,0.065,0.14,0.077,0.203,0.03c0.17-0.125,0.34-0.25,0.511-0.374L10.3,20.363L10.3,20.363z M10.317,20.893l0.007,0.236
			c-0.013-0.01-0.026-0.021-0.037-0.034C10.239,21.03,10.252,20.94,10.317,20.893L10.317,20.893z M8.67,17.774
			c0.317-0.199,0.625-0.396,0.916-0.578c0.067-0.043,0.088-0.134,0.045-0.202C9.587,16.927,9.5,16.907,9.43,16.949
			c-0.258,0.164-0.517,0.326-0.769,0.489L8.67,17.774L8.67,17.774z M8.654,17.203c0.137-0.092,0.274-0.183,0.411-0.271
			c0.067-0.045,0.085-0.137,0.042-0.202c-0.045-0.068-0.135-0.088-0.202-0.042c-0.087,0.056-0.174,0.113-0.263,0.173L8.654,17.203
			L8.654,17.203z M8.636,16.677l-0.01-0.343c0.087-0.058,0.178-0.114,0.263-0.172c0.067-0.043,0.157-0.025,0.202,0.043
			c0.044,0.066,0.025,0.157-0.044,0.202C8.912,16.495,8.776,16.585,8.636,16.677L8.636,16.677z M8.625,16.276l0.411-0.266
			c0.067-0.042,0.087-0.133,0.043-0.199c-0.043-0.068-0.135-0.087-0.201-0.044l-0.263,0.17L8.625,16.276L8.625,16.276z
			 M8.608,15.729l-0.009-0.345l0.26-0.179c0.065-0.044,0.156-0.026,0.203,0.04c0.044,0.067,0.027,0.156-0.04,0.202L8.608,15.729
			L8.608,15.729z M8.597,15.349c0.143-0.096,0.282-0.188,0.414-0.279c0.066-0.045,0.084-0.136,0.038-0.202
			c-0.043-0.066-0.135-0.084-0.202-0.039c-0.085,0.059-0.172,0.117-0.261,0.176L8.597,15.349L8.597,15.349z M8.581,14.783
			l-0.01-0.343l0.261-0.176c0.065-0.043,0.156-0.025,0.2,0.041c0.047,0.066,0.028,0.156-0.038,0.202L8.581,14.783L8.581,14.783z
			 M8.564,14.249l0.413-0.28c0.069-0.046,0.084-0.137,0.039-0.203c-0.044-0.066-0.136-0.084-0.202-0.039l-0.26,0.176L8.564,14.249
			L8.564,14.249z M8.549,13.744l-0.011-0.342L8.8,13.228c0.067-0.046,0.157-0.025,0.202,0.04c0.045,0.067,0.024,0.158-0.041,0.202
			L8.549,13.744L8.549,13.744z M8.538,13.348c0.142-0.093,0.281-0.183,0.412-0.271c0.066-0.045,0.085-0.135,0.041-0.201
			c-0.043-0.067-0.135-0.085-0.201-0.042l-0.262,0.174L8.538,13.348L8.538,13.348z M8.52,12.779l-0.01-0.347l0.259-0.178
			c0.066-0.046,0.157-0.029,0.202,0.037C9.017,12.358,9,12.449,8.933,12.494C8.797,12.589,8.662,12.684,8.52,12.779L8.52,12.779z
			 M8.509,12.426c0.156-0.109,0.294-0.212,0.418-0.304c0.064-0.047,0.078-0.138,0.03-0.202c-0.048-0.065-0.138-0.079-0.204-0.031
			c-0.078,0.058-0.163,0.12-0.255,0.186L8.509,12.426L8.509,12.426z M8.493,11.893l-0.009-0.352
			c0.092-0.067,0.177-0.132,0.253-0.188c0.063-0.049,0.155-0.037,0.203,0.028c0.049,0.063,0.036,0.153-0.027,0.202
			C8.792,11.674,8.652,11.778,8.493,11.893L8.493,11.893z M8.478,11.354l0.412-0.285c0.067-0.046,0.085-0.135,0.038-0.202
			c-0.046-0.066-0.137-0.082-0.201-0.038l-0.26,0.179L8.478,11.354L8.478,11.354z M8.395,8.596L8.383,8.259
			c0.098-0.06,0.185-0.116,0.266-0.167C8.717,8.049,8.808,8.071,8.85,8.14c0.043,0.067,0.021,0.158-0.047,0.201
			C8.646,8.438,8.531,8.51,8.464,8.552L8.395,8.596L8.395,8.596z M8.382,8.198c0.023-0.013,0.049-0.027,0.074-0.042
			c0.096-0.055,0.208-0.123,0.336-0.197C8.859,7.918,8.88,7.828,8.839,7.76c-0.042-0.069-0.133-0.092-0.2-0.05
			C8.538,7.771,8.448,7.825,8.373,7.869L8.382,8.198L8.382,8.198z M8.371,7.841l-0.009-0.33c0.074-0.044,0.163-0.098,0.266-0.162
			c0.068-0.041,0.159-0.02,0.201,0.051C8.872,7.467,8.85,7.558,8.781,7.6C8.654,7.676,8.537,7.745,8.429,7.809l0,0L8.371,7.841
			L8.371,7.841z M8.355,7.26L8.343,6.913l0.258-0.18c0.066-0.047,0.155-0.031,0.203,0.035C8.85,6.832,8.836,6.924,8.768,6.97
			L8.355,7.26L8.355,7.26z M8.339,6.801L8.77,6.498c0.066-0.045,0.082-0.136,0.035-0.201C8.759,6.23,8.669,6.215,8.604,6.262
			L8.33,6.453L8.339,6.801L8.339,6.801z M8.329,6.404l-0.011-0.35c0.109-0.078,0.227-0.16,0.354-0.247
			c0.065-0.046,0.157-0.028,0.202,0.037c0.045,0.068,0.028,0.157-0.037,0.204C8.648,6.177,8.478,6.297,8.329,6.404L8.329,6.404z
			 M8.315,5.966l-0.011-0.35c0.182-0.13,0.38-0.269,0.594-0.416C8.964,5.155,9.055,5.171,9.1,5.238
			C9.145,5.305,9.128,5.394,9.061,5.44C8.783,5.633,8.531,5.81,8.315,5.966L8.315,5.966z M8.167,1.046
			c0.3-0.216,0.605-0.439,0.912-0.662c0.064-0.047,0.077-0.139,0.032-0.205C9.064,0.114,8.973,0.101,8.909,0.147
			C8.655,0.331,8.406,0.515,8.157,0.694L8.167,1.046z M8.056,0.316c0.027-0.02,0.057-0.028,0.089-0.028l0.009,0.319
			c-0.17,0.126-0.341,0.252-0.506,0.377L7.637,0.629C7.776,0.525,7.916,0.422,8.056,0.316L8.056,0.316z M8.157,0.694
			c-0.17,0.124-0.341,0.247-0.506,0.367l0.011,0.354c0.165-0.123,0.335-0.244,0.506-0.369L8.157,0.694L8.157,0.694z M8.172,1.181
			l0.01,0.347C8.01,1.646,7.841,1.764,7.674,1.88l-0.01-0.347C7.83,1.417,8.001,1.3,8.172,1.181L8.172,1.181z M8.184,1.612
			C8.012,1.727,7.842,1.842,7.677,1.956l0.01,0.343c0.166-0.112,0.335-0.227,0.507-0.343L8.184,1.612L8.184,1.612z M8.196,1.991
			l0.01,0.344c-0.19,0.125-0.36,0.24-0.507,0.336l-0.01-0.342C7.838,2.23,8.009,2.115,8.196,1.991L8.196,1.991z M8.208,2.412
			L7.702,2.741l0.01,0.34l0.507-0.329L8.208,2.412L8.208,2.412z M8.221,2.84l0.011,0.346c-0.205,0.139-0.375,0.26-0.507,0.353
			l-0.012-0.35C7.856,3.089,8.028,2.971,8.221,2.84L8.221,2.84z M8.238,3.388C8.033,3.518,7.862,3.626,7.73,3.71l0.01,0.34
			c0.111-0.071,0.285-0.182,0.508-0.324L8.238,3.388L8.238,3.388z M8.25,3.802L8.26,4.146C8.084,4.265,7.917,4.38,7.752,4.493
			L7.742,4.147C7.908,4.034,8.077,3.919,8.25,3.802L8.25,3.802z M8.266,4.329C8.091,4.446,7.922,4.563,7.758,4.675l0.011,0.347
			c0.165-0.112,0.333-0.228,0.508-0.347L8.266,4.329L8.266,4.329z M8.282,4.824L8.3,5.487C8.122,5.606,7.953,5.721,7.793,5.829
			L7.773,5.157L8.282,4.824L8.282,4.824z M8.304,5.616C8.156,5.722,8.019,5.82,7.895,5.911c-0.003,0.001-0.006,0.006-0.01,0.007
			C7.857,5.942,7.827,5.963,7.797,5.984l0.011,0.359c0.073-0.058,0.157-0.121,0.251-0.19c0.004-0.003,0.006-0.005,0.01-0.008
			c0.075-0.057,0.157-0.116,0.246-0.18L8.304,5.616L8.304,5.616z M8.318,6.055l0.011,0.35C8.246,6.465,8.167,6.522,8.096,6.575
			c-0.11,0.082-0.202,0.153-0.273,0.214L7.811,6.425C7.845,6.399,7.882,6.371,7.92,6.343C8.036,6.256,8.167,6.16,8.318,6.055
			L8.318,6.055z M8.33,6.453L7.823,6.812l0.01,0.349l0.507-0.359L8.33,6.453L8.33,6.453z M8.343,6.913L8.355,7.26l-0.427,0.3
			L7.847,7.616L7.836,7.27L8.343,6.913L8.343,6.913z M8.362,7.511C8.334,7.528,8.308,7.544,8.284,7.557V7.556l0,0
			C8.195,7.608,8.123,7.647,8.073,7.67c-0.055,0.025-0.129,0.066-0.22,0.117l0.01,0.331c0.144-0.084,0.258-0.149,0.335-0.186
			C8.244,7.91,8.302,7.881,8.371,7.841L8.362,7.511L8.362,7.511z M8.373,7.869l0.01,0.329C8.319,8.232,8.267,8.261,8.227,8.281
			c-0.082,0.038-0.201,0.105-0.354,0.2L7.864,8.147C7.96,8.09,8.042,8.046,8.103,8.019c0.05-0.023,0.122-0.064,0.209-0.113
			L8.373,7.869L8.373,7.869z M8.383,8.259L8.311,8.306C8.218,8.362,8.139,8.414,8.078,8.454H8.076l0,0L8.027,8.486L8.021,8.49
			L7.972,8.522C7.905,8.566,7.887,8.657,7.931,8.724c0.045,0.067,0.134,0.086,0.2,0.042L8.18,8.734L8.186,8.73l0.049-0.033l0,0
			c0.04-0.024,0.094-0.06,0.16-0.102L8.383,8.259L8.383,8.259z M8.467,11.008l0.011,0.347L7.97,11.703l-0.01-0.347L8.467,11.008
			L8.467,11.008z M8.484,11.541c-0.15,0.109-0.32,0.23-0.508,0.364l0.011,0.348c0.183-0.128,0.354-0.25,0.506-0.36L8.484,11.541
			L8.484,11.541z M8.499,12.074l0.011,0.352c-0.156,0.111-0.325,0.231-0.507,0.358l-0.01-0.35
			C8.175,12.306,8.346,12.184,8.499,12.074L8.499,12.074z M8.51,12.433c-0.156,0.109-0.327,0.227-0.508,0.352l0.011,0.347
			c0.173-0.12,0.342-0.237,0.507-0.352L8.51,12.433L8.51,12.433z M8.528,13.008l0.01,0.34c-0.164,0.108-0.334,0.222-0.508,0.336
			l-0.011-0.343C8.195,13.226,8.366,13.114,8.528,13.008L8.528,13.008z M8.539,13.402l-0.507,0.337l0.011,0.344l0.507-0.339
			L8.539,13.402L8.539,13.402z M8.554,13.902l0.01,0.347c-0.167,0.113-0.337,0.229-0.506,0.346l-0.011-0.346
			C8.217,14.132,8.386,14.018,8.554,13.902L8.554,13.902z M8.571,14.44l-0.464,0.31l-0.044,0.031l0.01,0.343l0.197-0.133
			l0.311-0.208L8.571,14.44L8.571,14.44z M8.586,15.004l0.011,0.345c-0.164,0.109-0.333,0.223-0.507,0.34L8.08,15.345
			C8.253,15.229,8.421,15.115,8.586,15.004L8.586,15.004z M8.599,15.384L8.09,15.729l0.012,0.345l0.506-0.346L8.599,15.384
			L8.599,15.384z M8.616,15.938l0.01,0.339l-0.508,0.329l-0.011-0.339L8.616,15.938L8.616,15.938z M8.626,16.334
			c-0.168,0.112-0.337,0.225-0.507,0.338l0.011,0.343c0.17-0.114,0.34-0.227,0.506-0.338L8.626,16.334L8.626,16.334z M8.642,16.86
			l0.012,0.343c-0.169,0.111-0.338,0.224-0.509,0.338l-0.011-0.344C8.306,17.083,8.475,16.97,8.642,16.86L8.642,16.86z
			 M8.662,17.438l-0.51,0.32l0.011,0.337l0.508-0.321L8.662,17.438L8.662,17.438z M8.672,17.838l0.011,0.343l-0.35,0.232
			l-0.158,0.104l-0.012-0.343l0.008-0.004L8.672,17.838L8.672,17.838z M8.686,18.309l-0.241,0.164l-0.266,0.18l0.01,0.344
			l0.419-0.283l0.089-0.058L8.686,18.309L8.686,18.309z M8.705,18.854l0.009,0.345c-0.168,0.113-0.339,0.227-0.508,0.34l-0.01-0.344
			C8.364,19.084,8.533,18.969,8.705,18.854L8.705,18.854z M8.712,19.204c-0.172,0.117-0.341,0.234-0.506,0.351l0.011,0.348
			c0.165-0.117,0.335-0.233,0.506-0.352L8.712,19.204L8.712,19.204z M8.73,19.733l0.01,0.347c-0.173,0.119-0.342,0.237-0.507,0.352
			l-0.011-0.347C8.387,19.971,8.557,19.853,8.73,19.733L8.73,19.733z M8.744,20.194l-0.506,0.358l0.01,0.33
			c0.022-0.004,0.043-0.011,0.063-0.026l0.444-0.313L8.744,20.194L8.744,20.194z M8.757,20.662l0.01,0.328
			c-0.05,0.006-0.101-0.015-0.132-0.058c-0.047-0.065-0.034-0.155,0.032-0.203L8.757,20.662L8.757,20.662z M7.952,11.093
			l0.094-0.063c0.065-0.046,0.082-0.137,0.037-0.202c-0.033-0.048-0.089-0.068-0.141-0.063L7.952,11.093z M7.648,0.984
			C7.479,1.109,7.315,1.23,7.156,1.349L7.144,0.994c0.161-0.118,0.327-0.24,0.493-0.365L7.648,0.984L7.648,0.984z M7.651,1.062
			C7.484,1.185,7.319,1.303,7.157,1.418L7.167,1.77c0.16-0.114,0.325-0.233,0.494-0.354L7.651,1.062L7.651,1.062z M7.665,1.533
			l0.01,0.347C7.507,1.998,7.343,2.109,7.182,2.223L7.171,1.876C7.332,1.766,7.497,1.651,7.665,1.533L7.665,1.533z M7.677,1.956
			L7.278,2.225L7.184,2.289l0.01,0.344L7.44,2.466l0.247-0.167L7.677,1.956L7.677,1.956z M7.689,2.329l0.01,0.342
			C7.563,2.761,7.45,2.834,7.358,2.895L7.206,2.995L7.194,2.653l0.004-0.002C7.315,2.575,7.482,2.465,7.689,2.329L7.689,2.329z
			 M7.702,2.741C7.514,2.862,7.368,2.959,7.264,3.024L7.207,3.063l0.011,0.341c0.087-0.057,0.156-0.102,0.205-0.136l0.289-0.188
			L7.702,2.741L7.702,2.741z M7.713,3.188l0.012,0.35c-0.08,0.057-0.143,0.104-0.188,0.14C7.472,3.725,7.37,3.8,7.232,3.897
			l-0.01-0.349c0.056-0.041,0.103-0.075,0.137-0.103C7.437,3.385,7.559,3.299,7.713,3.188L7.713,3.188z M7.73,3.71L7.527,3.841
			C7.468,3.876,7.37,3.941,7.236,4.031l0.012,0.345c0.208-0.143,0.358-0.242,0.434-0.289L7.74,4.05L7.73,3.71L7.73,3.71z
			 M7.742,4.147l0.011,0.346c-0.17,0.117-0.335,0.231-0.491,0.34L7.25,4.487C7.407,4.378,7.573,4.265,7.742,4.147L7.742,4.147z
			 M7.758,4.675c-0.169,0.118-0.335,0.23-0.491,0.341l0.009,0.347c0.156-0.107,0.322-0.222,0.493-0.341L7.758,4.675L7.758,4.675z
			 M7.773,5.157l0.021,0.672c-0.18,0.124-0.345,0.238-0.492,0.345L7.281,5.484C7.43,5.385,7.596,5.276,7.773,5.157L7.773,5.157z
			 M7.797,5.984c-0.206,0.157-0.358,0.28-0.446,0.366C7.338,6.363,7.323,6.377,7.307,6.393l0.011,0.368
			c0.104-0.082,0.186-0.15,0.238-0.202c0.053-0.054,0.138-0.127,0.252-0.215L7.797,5.984L7.797,5.984z M7.811,6.425l0.012,0.364
			c-0.046,0.037-0.084,0.07-0.112,0.1L7.704,6.895l0.119-0.083l0.01,0.349l-0.1,0.069L7.341,7.507L7.321,6.841
			c0.08-0.063,0.144-0.117,0.188-0.16C7.571,6.615,7.676,6.528,7.811,6.425L7.811,6.425z M7.836,7.27L7.761,7.321L7.344,7.614
			l0.01,0.348l0.493-0.346L7.836,7.27L7.836,7.27z M7.853,7.787l0.01,0.331C7.723,8.2,7.557,8.304,7.369,8.425l-0.01-0.337
			C7.552,7.966,7.718,7.864,7.853,7.787L7.853,7.787z M7.864,8.147C7.728,8.228,7.563,8.332,7.37,8.456l0.01,0.34
			c0.188-0.124,0.354-0.229,0.493-0.314L7.864,8.147L7.864,8.147z M7.942,10.765l0.01,0.328c-0.161,0.111-0.324,0.224-0.492,0.342
			l-0.011-0.346c0.144-0.101,0.289-0.201,0.432-0.298C7.899,10.775,7.92,10.769,7.942,10.765L7.942,10.765z M7.96,11.356
			l-0.494,0.34l0.01,0.347l0.494-0.34L7.96,11.356L7.96,11.356z M7.976,11.905l0.011,0.348c-0.154,0.108-0.319,0.225-0.492,0.344
			l-0.011-0.348C7.659,12.128,7.823,12.014,7.976,11.905L7.976,11.905z M7.993,12.435c-0.155,0.11-0.321,0.224-0.494,0.344
			l0.011,0.347l0.083-0.056l-0.083,0.057l0.01,0.347l0.494-0.342l-0.011-0.347l-0.044,0.03l0.044-0.03L7.993,12.435L7.993,12.435z
			 M8.019,13.341l0.011,0.343c-0.161,0.104-0.325,0.212-0.493,0.321l-0.01-0.341C7.695,13.555,7.86,13.446,8.019,13.341
			L8.019,13.341z M8.032,13.739l-0.493,0.329l0.01,0.342c0.165-0.109,0.331-0.219,0.494-0.327L8.032,13.739L8.032,13.739z
			 M8.047,14.249l0.011,0.346c-0.166,0.111-0.33,0.224-0.493,0.335l-0.011-0.345C7.718,14.473,7.884,14.359,8.047,14.249
			L8.047,14.249z M8.063,14.781l-0.492,0.328l0.009,0.344l0.493-0.329L8.063,14.781L8.063,14.781z M8.08,15.345l0.011,0.344
			c-0.161,0.106-0.326,0.216-0.493,0.327l-0.011-0.343C7.752,15.561,7.918,15.452,8.08,15.345L8.08,15.345z M8.09,15.729
			l-0.493,0.334l0.012,0.347l0.493-0.336L8.09,15.729L8.09,15.729z M8.107,16.267l0.011,0.339l-0.494,0.319l-0.01-0.341
			L8.107,16.267L8.107,16.267z M8.12,16.672c-0.164,0.107-0.326,0.219-0.492,0.331l0.01,0.346c0.165-0.113,0.329-0.225,0.493-0.334
			L8.12,16.672L8.12,16.672z M8.134,17.197l0.011,0.344c-0.164,0.111-0.327,0.223-0.492,0.336l-0.01-0.347
			C7.808,17.418,7.973,17.307,8.134,17.197L8.134,17.197z M8.152,17.759L7.659,18.07l0.01,0.337l0.494-0.312L8.152,17.759
			L8.152,17.759z M8.164,18.175l0.012,0.343l-0.494,0.328l-0.01-0.343L8.164,18.175L8.164,18.175z M8.179,18.652
			c-0.166,0.11-0.331,0.223-0.493,0.333l0.011,0.345c0.163-0.11,0.328-0.222,0.492-0.334L8.179,18.652L8.179,18.652z M8.196,19.195
			l0.01,0.344C8.041,19.65,7.876,19.76,7.712,19.87l-0.01-0.344C7.865,19.418,8.03,19.309,8.196,19.195L8.196,19.195z M8.207,19.555
			c-0.168,0.116-0.333,0.23-0.492,0.344l0.01,0.348c0.159-0.112,0.324-0.227,0.493-0.344L8.207,19.555L8.207,19.555z M8.222,20.085
			l0.011,0.347c-0.144,0.101-0.286,0.201-0.424,0.297c-0.021,0.014-0.045,0.023-0.068,0.026l-0.012-0.326
			C7.89,20.316,8.054,20.202,8.222,20.085L8.222,20.085z M8.238,20.553L8.143,20.62c-0.067,0.046-0.083,0.137-0.035,0.202
			c0.032,0.046,0.086,0.067,0.14,0.061L8.238,20.553L8.238,20.553z M7.444,10.94l0.089-0.064c0.064-0.048,0.081-0.138,0.032-0.202
			c-0.03-0.043-0.081-0.064-0.131-0.06L7.444,10.94L7.444,10.94z M7.428,10.407l-0.011-0.326c0.05-0.005,0.101,0.016,0.132,0.059
			c0.047,0.066,0.032,0.157-0.033,0.203L7.428,10.407L7.428,10.407z M7.41,9.795L7.401,9.471c0.05-0.004,0.101,0.019,0.131,0.063
			C7.579,9.601,7.561,9.69,7.495,9.736L7.41,9.795L7.41,9.795z M7.394,9.267l-0.01-0.324c0.05-0.006,0.103,0.018,0.132,0.062
			c0.048,0.067,0.029,0.159-0.037,0.204L7.394,9.267z M7.156,1.349C7.002,1.462,6.853,1.573,6.708,1.68L6.698,1.326
			c0.146-0.107,0.294-0.219,0.446-0.332L7.156,1.349L7.156,1.349z M7.157,1.418c-0.15,0.11-0.301,0.218-0.445,0.322L6.72,2.091
			c0.146-0.103,0.295-0.21,0.447-0.321L7.157,1.418L7.157,1.418z M7.171,1.876l0.011,0.347C7.03,2.328,6.879,2.433,6.734,2.531
			l-0.01-0.345C6.87,2.086,7.02,1.981,7.171,1.876L7.171,1.876z M7.184,2.289C7.032,2.393,6.881,2.492,6.736,2.591l0.011,0.343
			c0.145-0.096,0.295-0.197,0.447-0.301L7.184,2.289L7.184,2.289z M7.194,2.653l0.012,0.342L7.006,3.123l-0.25,0.164l-0.01-0.342
			l0.102-0.064L7.194,2.653L7.194,2.653z M7.207,3.063c-0.107,0.07-0.26,0.171-0.448,0.295L6.769,3.7
			c0.179-0.118,0.329-0.217,0.448-0.296L7.207,3.063L7.207,3.063z M7.222,3.549l0.01,0.349C7.11,3.984,6.958,4.091,6.785,4.211
			l-0.01-0.347C6.958,3.733,7.113,3.627,7.222,3.549L7.222,3.549z M7.236,4.031C7.115,4.113,6.963,4.215,6.788,4.334l0.011,0.344
			C6.967,4.563,7.12,4.462,7.248,4.376L7.236,4.031L7.236,4.031z M7.25,4.487l0.011,0.346C7.103,4.942,6.954,5.047,6.813,5.145
			L6.801,4.797C6.944,4.698,7.094,4.596,7.25,4.487L7.25,4.487z M7.267,5.016C7.109,5.125,6.959,5.229,6.818,5.328l0.011,0.348
			c0.139-0.099,0.289-0.202,0.447-0.313L7.267,5.016L7.267,5.016z M7.281,5.484l0.021,0.689C7.125,6.301,6.975,6.413,6.853,6.508
			L6.842,6.149c0.12-0.09,0.26-0.191,0.414-0.297C7.095,5.958,6.956,6.05,6.841,6.126l-0.01-0.342
			C6.961,5.698,7.11,5.597,7.281,5.484L7.281,5.484z M7.307,6.393C7.212,6.478,7.059,6.596,6.86,6.741l0.012,0.35
			C7.048,6.966,7.2,6.854,7.318,6.761L7.307,6.393L7.307,6.393z M7.321,6.841l0.021,0.666L6.894,7.822L6.874,7.174
			C7.055,7.044,7.205,6.932,7.321,6.841L7.321,6.841z M7.344,7.614L6.897,7.928l0.01,0.349l0.447-0.314L7.344,7.614L7.344,7.614z
			 M7.359,8.088l0.01,0.337C7.23,8.512,7.08,8.607,6.92,8.713L6.91,8.373C7.071,8.268,7.222,8.173,7.359,8.088L7.359,8.088z
			 M7.37,8.456C7.233,8.545,7.082,8.643,6.922,8.753l0.009,0.343c0.16-0.108,0.31-0.21,0.448-0.3L7.37,8.456L7.37,8.456z
			 M7.384,8.942l0.01,0.324C7.254,9.36,7.105,9.464,6.945,9.574L6.936,9.229c0.135-0.093,0.261-0.181,0.379-0.262
			C7.335,8.952,7.361,8.944,7.384,8.942L7.384,8.942z M7.401,9.471C7.377,9.473,7.352,9.481,7.33,9.496
			C7.211,9.577,7.084,9.664,6.952,9.757l0.011,0.347C7.121,9.994,7.269,9.892,7.41,9.795L7.401,9.471L7.401,9.471z M7.417,10.081
			l0.011,0.326c-0.148,0.104-0.297,0.212-0.447,0.317l-0.01-0.348l0.375-0.271C7.369,10.091,7.392,10.082,7.417,10.081L7.417,10.081
			z M7.434,10.614c-0.025,0.001-0.05,0.011-0.072,0.025l-0.375,0.269l0.009,0.35c0.15-0.106,0.301-0.213,0.448-0.317L7.434,10.614
			L7.434,10.614z M7.449,11.089l0.011,0.346c-0.148,0.103-0.297,0.207-0.448,0.312L7,11.399C7.151,11.295,7.299,11.192,7.449,11.089
			L7.449,11.089z M7.466,11.696l-0.447,0.308l0.011,0.348l0.446-0.309L7.466,11.696L7.466,11.696z M7.484,12.249l0.011,0.348
			c-0.145,0.098-0.295,0.2-0.448,0.307l-0.011-0.345C7.19,12.452,7.34,12.348,7.484,12.249L7.484,12.249z M7.499,12.778
			c-0.144,0.1-0.293,0.202-0.447,0.309l0.01,0.345c0.154-0.105,0.305-0.207,0.448-0.307L7.499,12.778L7.499,12.778z M7.509,13.126
			l0.01,0.347l-0.005,0.003l-0.441,0.308l-0.012-0.348l0.287-0.198L7.509,13.126L7.509,13.126z M7.527,13.664
			c-0.147,0.097-0.298,0.195-0.448,0.295l0.01,0.341c0.15-0.1,0.3-0.197,0.448-0.295L7.527,13.664L7.527,13.664z M7.539,14.068
			l0.01,0.342L7.1,14.712l-0.01-0.345L7.539,14.068L7.539,14.068z M7.554,14.585c-0.15,0.101-0.3,0.204-0.448,0.307l0.011,0.345
			c0.149-0.102,0.298-0.203,0.448-0.307L7.554,14.585L7.554,14.585z M7.571,15.109l0.009,0.344l-0.448,0.301l-0.01-0.344
			L7.571,15.109L7.571,15.109z M7.586,15.673l-0.448,0.299l0.01,0.342l0.117-0.077l0.332-0.221L7.586,15.673L7.586,15.673z
			 M7.597,16.063l0.012,0.347l-0.447,0.306l-0.011-0.345L7.597,16.063L7.597,16.063z M7.614,16.584l-0.188,0.123l-0.26,0.167
			l0.011,0.341l0.406-0.262l0.041-0.028L7.614,16.584L7.614,16.584z M7.627,17.003l0.01,0.346c-0.149,0.102-0.299,0.202-0.448,0.308
			l-0.011-0.348C7.329,17.206,7.477,17.104,7.627,17.003L7.627,17.003z M7.643,17.53c-0.148,0.103-0.299,0.204-0.447,0.309
			l0.01,0.348c0.149-0.104,0.298-0.209,0.447-0.31L7.643,17.53L7.643,17.53z M7.659,18.07l0.01,0.337L7.22,18.689l-0.009-0.337
			L7.659,18.07L7.659,18.07z M7.671,18.503L7.224,18.8l0.01,0.344l0.447-0.298L7.671,18.503L7.671,18.503z M7.686,18.985
			l0.011,0.345c-0.151,0.102-0.301,0.201-0.448,0.301l-0.01-0.344C7.385,19.188,7.534,19.088,7.686,18.985L7.686,18.985z
			 M7.703,19.526c-0.152,0.102-0.302,0.201-0.447,0.299l0.009,0.343c0.149-0.097,0.298-0.198,0.448-0.298L7.703,19.526L7.703,19.526
			z M7.714,19.898l0.01,0.348c-0.153,0.108-0.303,0.214-0.446,0.315l-0.001,0.001l-0.01-0.35
			C7.411,20.111,7.558,20.006,7.714,19.898L7.714,19.898z M7.729,20.429L7.643,20.49c-0.066,0.046-0.082,0.137-0.035,0.203
			c0.029,0.045,0.08,0.064,0.133,0.062L7.729,20.429L7.729,20.429z M6.693,1.143c0.069-0.057,0.147-0.12,0.231-0.187
			c0.064-0.05,0.074-0.142,0.023-0.204C6.899,0.688,6.809,0.677,6.746,0.728l-0.064,0.05L6.693,1.143z M6.708,1.68
			c-0.385,0.283-0.741,0.544-1.057,0.77C5.485,2.57,5.327,2.683,5.181,2.786L5.169,2.436c0.1-0.07,0.205-0.144,0.313-0.223
			c0.369-0.266,0.779-0.565,1.216-0.887L6.708,1.68L6.708,1.68z M6.681,0.777c-0.086,0.07-0.164,0.132-0.232,0.188
			C6.361,1.037,6.291,1.094,6.243,1.138c-0.14,0.124-0.533,0.396-1.09,0.765l0.012,0.341l0.145-0.096
			c0.573-0.378,0.978-0.66,1.126-0.79c0.056-0.05,0.122-0.105,0.2-0.168l0.058-0.047L6.681,0.777L6.681,0.777z M6.711,1.74
			C6.435,1.938,6.17,2.126,5.924,2.3C5.654,2.492,5.404,2.667,5.182,2.82l0.01,0.345c0.26-0.176,0.564-0.389,0.902-0.628
			C6.292,2.396,6.5,2.247,6.72,2.091L6.711,1.74L6.711,1.74z M6.724,2.187L6.56,2.298c-0.515,0.357-0.98,0.677-1.365,0.94
			l0.01,0.345c0.414-0.282,0.938-0.642,1.522-1.046l0.007-0.006L6.724,2.187L6.724,2.187z M6.736,2.591
			C6.15,2.985,5.625,3.337,5.206,3.617l0.021,0.669c0.608-0.397,1.139-0.743,1.53-0.999l-0.01-0.342L6.112,3.361
			c0.199-0.134,0.412-0.276,0.635-0.428L6.736,2.591L6.736,2.591z M6.758,3.358L6.769,3.7C6.42,3.933,5.966,4.233,5.45,4.576
			L5.237,4.717l-0.01-0.344l0.061-0.04C5.882,3.938,6.39,3.603,6.758,3.358L6.758,3.358z M6.775,3.864l0.01,0.347
			C6.384,4.488,5.86,4.85,5.262,5.256L5.255,5.263L5.245,4.918C5.86,4.497,6.391,4.131,6.775,3.864L6.775,3.864z M6.788,4.334
			C6.388,4.604,5.86,4.963,5.258,5.376l0.01,0.346c0.591-0.403,1.117-0.763,1.53-1.044L6.788,4.334L6.788,4.334z M6.801,4.797
			C6.025,5.339,5.463,5.745,5.283,5.905L5.274,5.913l0.011,0.366c0.078-0.061,0.143-0.113,0.19-0.155
			c0.164-0.145,0.653-0.501,1.338-0.979L6.801,4.797L6.801,4.797z M6.818,5.328l0.011,0.348C6.217,6.104,5.786,6.42,5.633,6.556
			C5.555,6.622,5.444,6.712,5.302,6.818L5.291,6.46c0.061-0.048,0.11-0.089,0.15-0.125C5.612,6.185,6.115,5.819,6.818,5.328
			L6.818,5.328z M6.832,5.784l0.01,0.342C6.721,6.207,6.63,6.271,6.568,6.313C6.362,6.456,5.907,6.771,5.314,7.18L5.302,6.832
			c0.523-0.359,0.915-0.629,1.102-0.758C6.489,6.015,6.635,5.916,6.832,5.784L6.832,5.784z M6.842,6.149l0.011,0.358
			C6.741,6.597,6.656,6.672,6.596,6.73C6.374,6.955,5.921,7.303,5.329,7.717l-0.01-0.348c0.499-0.354,0.878-0.647,1.07-0.842
			C6.481,6.434,6.636,6.308,6.842,6.149L6.842,6.149z M6.86,6.741C6.488,7.014,5.954,7.377,5.332,7.789l0.01,0.342
			c0.602-0.396,1.131-0.754,1.53-1.04L6.86,6.741L6.86,6.741z M6.874,7.174C6.481,7.455,5.949,7.815,5.344,8.218l0.021,0.681
			c0.528-0.37,1.043-0.734,1.529-1.076L6.874,7.174L6.874,7.174z M6.897,7.928l0.01,0.349C6.42,8.617,5.904,8.979,5.377,9.346
			L5.369,8.998C5.897,8.629,6.412,8.267,6.897,7.928L6.897,7.928z M6.91,8.373l0.011,0.34C6.487,8.994,5.979,9.332,5.434,9.7
			L5.389,9.73l-0.01-0.344C5.945,9.006,6.469,8.657,6.91,8.373L6.91,8.373z M6.922,8.753l0.009,0.343
			c-0.349,0.234-0.743,0.507-1.165,0.8c-0.12,0.085-0.24,0.17-0.364,0.256l-0.01-0.349L5.6,9.658C6.085,9.32,6.535,9.01,6.922,8.753
			L6.922,8.753z M6.936,9.229c-0.442,0.305-0.966,0.668-1.53,1.063l0.013,0.348c0.555-0.388,1.077-0.753,1.526-1.064L6.936,9.229
			L6.936,9.229z M6.952,9.757c-0.449,0.311-0.971,0.676-1.529,1.065l0.011,0.347c0.551-0.385,1.073-0.75,1.529-1.065L6.952,9.757
			L6.952,9.757z M6.971,10.377l0.01,0.348c-0.496,0.354-1.006,0.716-1.529,1.08L5.44,11.457C5.963,11.092,6.473,10.73,6.971,10.377
			L6.971,10.377z M6.987,10.908l0.009,0.35c-0.496,0.354-1.003,0.714-1.527,1.077l-0.011-0.347
			C5.98,11.625,6.49,11.264,6.987,10.908L6.987,10.908z M7,11.399c-0.509,0.354-1.024,0.713-1.529,1.065l0.011,0.349
			c0.512-0.358,1.03-0.72,1.529-1.067L7,11.399L7,11.399z M7.019,12.004c-0.505,0.347-1.023,0.703-1.53,1.051L5.5,13.401
			c0.505-0.348,1.024-0.703,1.53-1.05L7.019,12.004L7.019,12.004z M7.036,12.559l0.011,0.345c-0.423,0.287-0.878,0.596-1.344,0.904
			l-0.188,0.126l-0.01-0.344l0.037-0.023C6.064,13.217,6.573,12.875,7.036,12.559L7.036,12.559z M7.051,13.087l0.01,0.345
			c-0.41,0.279-0.849,0.573-1.295,0.871l-0.234,0.155l-0.011-0.344l0.084-0.055C6.106,13.728,6.597,13.396,7.051,13.087
			L7.051,13.087z M7.061,13.436c-0.493,0.342-1.011,0.702-1.528,1.057l0.011,0.346c0.515-0.353,1.032-0.711,1.529-1.055
			L7.061,13.436L7.061,13.436z M7.079,13.959c-0.496,0.322-1.016,0.66-1.532,0.993l0.009,0.341c0.509-0.329,1.029-0.666,1.533-0.993
			L7.079,13.959L7.079,13.959z M7.09,14.367c-0.519,0.349-1.036,0.695-1.531,1.029l0.011,0.345c0.497-0.336,1.013-0.683,1.53-1.029
			L7.09,14.367L7.09,14.367z M7.106,14.892l0.011,0.345c-0.477,0.326-0.945,0.648-1.384,0.95l-0.147,0.103l-0.009-0.347
			C6.072,15.599,6.589,15.244,7.106,14.892L7.106,14.892z M7.122,15.41l0.01,0.344c-0.512,0.343-1.029,0.694-1.53,1.035L5.59,16.443
			C6.093,16.103,6.612,15.752,7.122,15.41L7.122,15.41z M7.138,15.972l-0.034,0.023c-0.498,0.331-1.006,0.669-1.496,0.997
			l0.011,0.345c0.495-0.335,1.017-0.681,1.529-1.023L7.138,15.972L7.138,15.972z M7.151,16.371
			c-0.429,0.292-0.837,0.572-1.214,0.831L5.622,17.42l0.009,0.345c0.152-0.103,0.311-0.213,0.471-0.323
			c0.344-0.235,0.699-0.479,1.061-0.726L7.151,16.371L7.151,16.371z M7.166,16.874l0.011,0.341c-0.548,0.354-1.067,0.69-1.532,0.992
			l-0.009-0.341C6.102,17.563,6.624,17.226,7.166,16.874L7.166,16.874z M7.178,17.309l0.011,0.348C7.125,17.7,7.062,17.743,7,17.79
			c-0.443,0.307-0.888,0.626-1.34,0.958l-0.009-0.353c0.399-0.295,0.793-0.575,1.181-0.845C6.947,17.468,7.064,17.39,7.178,17.309
			L7.178,17.309z M7.196,17.839l-0.168,0.115c-0.447,0.312-0.902,0.636-1.361,0.976l0.011,0.354
			c0.514-0.382,1.021-0.745,1.518-1.091l0.011-0.007L7.196,17.839L7.196,17.839z M7.211,18.353l-0.848,0.533l-0.685,0.433
			l0.01,0.336l0.83-0.522l0.701-0.442L7.211,18.353L7.211,18.353z M7.224,18.8l0.01,0.344c-0.438,0.291-0.87,0.577-1.295,0.858
			c-0.066,0.043-0.156,0.024-0.201-0.043c-0.044-0.066-0.024-0.156,0.041-0.2C6.192,19.487,6.691,19.154,7.224,18.8L7.224,18.8z
			 M7.239,19.287l0.01,0.344c-0.301,0.203-0.591,0.397-0.868,0.581c-0.067,0.044-0.159,0.025-0.202-0.04
			c-0.045-0.068-0.026-0.158,0.039-0.203C6.536,19.758,6.878,19.527,7.239,19.287L7.239,19.287z M7.255,19.825
			c-0.185,0.121-0.363,0.24-0.534,0.354c-0.065,0.043-0.084,0.135-0.041,0.2c0.045,0.068,0.134,0.086,0.201,0.042
			c0.127-0.082,0.253-0.168,0.383-0.253L7.255,19.825L7.255,19.825z M7.267,20.213l-0.156,0.112
			c-0.066,0.045-0.082,0.137-0.037,0.202c0.047,0.063,0.138,0.08,0.203,0.035L7.267,20.213z M5.181,2.786
			C4.693,3.129,4.334,3.365,4.17,3.444C4.028,3.512,3.779,3.644,3.458,3.822c-0.329,0.181-0.735,0.41-1.191,0.673
			C2.196,4.534,2.107,4.51,2.069,4.439c-0.04-0.07-0.017-0.157,0.054-0.197C2.576,3.98,2.984,3.751,3.318,3.568
			c0.33-0.185,0.583-0.316,0.729-0.387C4.21,3.103,4.616,2.83,5.169,2.436L5.181,2.786L5.181,2.786z M5.153,1.902L5.149,1.905
			c-0.62,0.412-1.443,0.938-2.347,1.508c-0.068,0.043-0.088,0.133-0.046,0.2c0.042,0.068,0.132,0.088,0.2,0.046
			c0.839-0.526,1.604-1.019,2.208-1.416L5.153,1.902L5.153,1.902z M5.182,2.82C4.715,3.14,4.377,3.359,4.228,3.433
			C4.05,3.515,3.719,3.7,3.286,3.951C2.837,4.21,2.275,4.546,1.659,4.921c-0.069,0.042-0.091,0.131-0.049,0.2
			c0.041,0.068,0.132,0.091,0.2,0.049C2.418,4.8,2.979,4.466,3.429,4.203c0.43-0.249,0.756-0.43,0.923-0.508
			c0.145-0.07,0.439-0.257,0.84-0.53L5.182,2.82L5.182,2.82z M5.195,3.238c-0.48,0.327-0.836,0.565-1.007,0.678
			C3.869,4.121,3.17,4.54,2.308,5.057c-0.4,0.239-0.827,0.496-1.097,0.657c-0.07,0.042-0.093,0.132-0.051,0.201
			c0.041,0.068,0.13,0.091,0.199,0.049C1.857,5.667,2.17,5.479,2.457,5.306c0.86-0.514,1.557-0.93,1.889-1.146
			c0.157-0.102,0.458-0.304,0.859-0.577L5.195,3.238L5.195,3.238z M5.206,3.617c-0.438,0.291-0.763,0.507-0.924,0.61
			C4.025,4.395,3.49,4.729,2.815,5.147C2.277,5.482,1.647,5.876,0.92,6.334c-0.069,0.041-0.09,0.131-0.046,0.198
			c0.041,0.067,0.13,0.09,0.2,0.047C1.71,6.178,2.388,5.756,2.968,5.396L3.444,5.1C2.558,5.675,1.611,6.29,0.701,6.879
			C0.634,6.922,0.615,7.012,0.658,7.078c0.045,0.069,0.135,0.088,0.2,0.045c1.465-0.947,3.094-2.006,4.368-2.837L5.206,3.617
			L5.206,3.617z M5.227,4.373C3.843,5.295,2.017,6.507,0.492,7.51c-0.066,0.045-0.083,0.135-0.04,0.201
			c0.044,0.067,0.136,0.085,0.201,0.041c1.59-1.045,3.276-2.166,4.584-3.035L5.227,4.373L5.227,4.373z M5.245,4.918l0.011,0.345
			c-1.438,0.98-3.268,2.217-4.793,3.24C0.394,8.55,0.305,8.531,0.259,8.465c-0.044-0.066-0.027-0.157,0.04-0.202
			C1.851,7.221,3.692,5.978,5.1,5.016L5.245,4.918L5.245,4.918z M5.258,5.376l0.01,0.346c-0.631,0.432-1.336,0.917-2.059,1.41
			C2.326,7.738,1.422,8.356,0.355,9.086C0.288,9.132,0.198,9.114,0.153,9.048C0.106,8.98,0.125,8.891,0.191,8.846
			C0.889,8.37,1.985,7.618,3.045,6.894C3.825,6.356,4.588,5.836,5.258,5.376L5.258,5.376z M5.274,5.913l0.011,0.366
			C4.956,6.536,4.378,6.942,3.678,7.418C2.675,8.101,1.423,8.921,0.279,9.654c-0.068,0.044-0.157,0.024-0.2-0.043
			C0.034,9.543,0.053,9.453,0.122,9.41C1.27,8.674,2.521,7.853,3.513,7.178C4.357,6.605,5.016,6.138,5.274,5.913L5.274,5.913z
			 M5.291,6.46l0.012,0.358C5.21,6.887,5.105,6.965,4.989,7.049l0.313-0.217L5.314,7.18C4.688,7.607,3.908,8.142,3.093,8.695
			c-0.959,0.648-1.974,1.33-2.867,1.916c-0.066,0.045-0.156,0.026-0.201-0.04C-0.021,10.503,0,10.413,0.067,10.37
			c0.801-0.527,1.694-1.126,2.555-1.709c-0.776,0.512-1.609,1.054-2.386,1.547c-0.067,0.045-0.156,0.024-0.2-0.044
			c-0.043-0.066-0.024-0.157,0.044-0.199c1.158-0.739,2.461-1.592,3.513-2.304C4.345,7.152,4.962,6.72,5.291,6.46L5.291,6.46z
			 M5.319,7.369l0.01,0.348C5.083,7.888,4.813,8.07,4.528,8.263C3.22,9.137,1.572,10.17,0.226,10.995
			c-0.068,0.044-0.16,0.021-0.199-0.048c-0.042-0.068-0.021-0.159,0.047-0.199C1.43,9.915,3.083,8.881,4.369,8.021
			C4.713,7.788,5.035,7.569,5.319,7.369L5.319,7.369z M5.332,7.789l-0.2,0.131c-1.573,1.038-3.633,2.334-5.04,3.21
			c-0.069,0.041-0.09,0.132-0.048,0.2s0.132,0.09,0.201,0.046c1.402-0.873,3.459-2.167,5.049-3.215l0.048-0.03L5.332,7.789
			L5.332,7.789z M5.344,8.218c-1.233,0.814-2.771,1.801-4.063,2.629c-0.415,0.266-0.806,0.517-1.152,0.738
			c-0.068,0.044-0.087,0.133-0.045,0.202c0.045,0.065,0.134,0.087,0.202,0.043c0.345-0.223,0.736-0.473,1.152-0.74
			c1.173-0.752,2.55-1.635,3.723-2.403c-1.792,1.256-3.715,2.588-4.968,3.395c-0.066,0.043-0.087,0.133-0.043,0.201
			c0.043,0.066,0.134,0.087,0.201,0.044c1.26-0.813,3.206-2.162,5.014-3.428L5.344,8.218L5.344,8.218z M5.369,8.998
			c-1.849,1.289-3.845,2.666-5.105,3.469c-0.067,0.044-0.088,0.133-0.044,0.201c0.043,0.068,0.135,0.088,0.201,0.045
			c1.225-0.781,3.149-2.107,4.957-3.367L5.369,8.998L5.369,8.998z M5.379,9.387L5.273,9.459c-1.668,1.125-3.663,2.519-4.927,3.427
			c-0.063,0.048-0.08,0.14-0.033,0.203c0.047,0.065,0.138,0.081,0.205,0.033c1.257-0.904,3.226-2.279,4.871-3.392L5.379,9.387
			L5.379,9.387z M5.392,9.803c-1.648,1.153-3.658,2.607-4.927,3.54c-0.065,0.046-0.077,0.137-0.03,0.202
			c0.048,0.064,0.139,0.079,0.202,0.029c1.222-0.893,3.139-2.28,4.765-3.423L5.392,9.803L5.392,9.803z M5.406,10.291
			c-0.472,0.332-0.976,0.685-1.477,1.04c-1.229,0.868-2.47,1.75-3.347,2.388c-0.064,0.048-0.078,0.138-0.031,0.203
			c0.048,0.066,0.138,0.079,0.205,0.031c0.873-0.634,2.111-1.517,3.341-2.385c0.447-0.315,0.893-0.629,1.321-0.93L5.406,10.291
			L5.406,10.291z M5.422,10.822c-0.47,0.327-0.96,0.674-1.452,1.023c-1.193,0.841-2.385,1.691-3.233,2.308
			c-0.063,0.048-0.078,0.139-0.031,0.202c0.048,0.065,0.138,0.08,0.203,0.033c0.847-0.615,2.038-1.466,3.229-2.306
			c0.438-0.311,0.875-0.617,1.296-0.914L5.422,10.822L5.422,10.822z M5.44,11.457l0.012,0.348c-0.319,0.224-0.644,0.448-0.978,0.675
			c-1.076,0.734-2.219,1.479-3.455,2.222c-0.067,0.041-0.157,0.019-0.198-0.05c-0.041-0.069-0.021-0.159,0.049-0.2
			c1.24-0.745,2.376-1.486,3.442-2.214C4.696,11.978,5.072,11.718,5.44,11.457L5.44,11.457z M5.458,11.988l0.011,0.347
			c-0.296,0.206-0.597,0.412-0.903,0.621c-1.049,0.714-2.163,1.438-3.361,2.161c-0.069,0.041-0.159,0.018-0.2-0.051
			c-0.041-0.07-0.02-0.159,0.051-0.199c1.202-0.725,2.309-1.444,3.348-2.151C4.76,12.473,5.113,12.229,5.458,11.988L5.458,11.988z
			 M5.471,12.465l0.011,0.349c-0.334,0.233-0.666,0.466-0.987,0.691c-1.308,0.914-2.447,1.713-3.034,2.108
			c-0.066,0.045-0.157,0.026-0.202-0.04c-0.044-0.066-0.027-0.156,0.038-0.201c0.561-0.375,1.713-1.184,3.032-2.106
			C4.699,13.007,5.082,12.738,5.471,12.465L5.471,12.465z M5.489,13.055L5.5,13.401l-0.667,0.456
			c-1.347,0.925-2.54,1.74-3.153,2.147c-0.067,0.045-0.156,0.026-0.201-0.04s-0.026-0.158,0.04-0.201
			c0.62-0.414,1.811-1.227,3.15-2.145C4.938,13.435,5.212,13.244,5.489,13.055L5.489,13.055z M5.505,13.59l0.01,0.344
			c-1.337,0.889-2.736,1.794-3.667,2.359c-0.068,0.043-0.156,0.021-0.198-0.05c-0.04-0.067-0.021-0.156,0.048-0.198
			C2.654,15.461,4.121,14.514,5.505,13.59L5.505,13.59z M5.521,14.114l0.011,0.344c-1.254,0.833-2.542,1.664-3.434,2.212
			c-0.068,0.041-0.158,0.02-0.201-0.05c-0.042-0.067-0.02-0.158,0.05-0.2C2.873,15.852,4.225,14.977,5.521,14.114L5.521,14.114z
			 M5.533,14.492c-1.261,0.867-2.509,1.714-3.358,2.243c-0.068,0.045-0.089,0.135-0.047,0.202c0.043,0.068,0.134,0.089,0.202,0.046
			c0.81-0.508,1.999-1.31,3.214-2.146L5.533,14.492L5.533,14.492z M5.546,14.952c-0.155,0.101-0.311,0.2-0.465,0.299
			C4.027,15.93,3.039,16.56,2.36,16.974c-0.067,0.043-0.09,0.132-0.048,0.2c0.04,0.067,0.132,0.09,0.199,0.048
			c0.693-0.424,1.684-1.053,2.729-1.726l0.314-0.203L5.546,14.952L5.546,14.952z M5.559,15.396l-0.165,0.112
			c-1.093,0.738-2.068,1.415-2.699,1.884c-0.063,0.048-0.077,0.139-0.028,0.203c0.046,0.064,0.137,0.077,0.201,0.03
			c0.613-0.456,1.59-1.131,2.688-1.875l0.014-0.01L5.559,15.396L5.559,15.396z M5.577,15.942l-0.009,0.006
			c-1.029,0.715-1.944,1.359-2.536,1.807c-0.064,0.049-0.076,0.139-0.027,0.204c0.048,0.063,0.14,0.077,0.203,0.027
			c0.553-0.418,1.406-1.021,2.378-1.697L5.577,15.942L5.577,15.942z M5.59,16.443c-0.865,0.59-1.674,1.153-2.269,1.594
			c-0.065,0.048-0.08,0.141-0.031,0.205s0.14,0.077,0.203,0.03c0.563-0.418,1.308-0.938,2.107-1.483L5.59,16.443L5.59,16.443z
			 M5.608,16.992l0.011,0.345c-0.67,0.448-1.293,0.876-1.792,1.239c-0.064,0.047-0.157,0.033-0.204-0.033
			c-0.046-0.063-0.03-0.154,0.033-0.203C4.207,17.944,4.887,17.478,5.608,16.992L5.608,16.992z M5.622,17.42l0.009,0.345
			c-0.625,0.43-1.152,0.797-1.519,1.052c-0.065,0.047-0.156,0.03-0.2-0.035c-0.048-0.066-0.031-0.157,0.034-0.202
			C4.372,18.279,4.957,17.875,5.622,17.42L5.622,17.42z M5.635,17.866l0.009,0.341c-0.496,0.323-0.928,0.605-1.259,0.826
			c-0.065,0.045-0.157,0.028-0.202-0.04c-0.043-0.066-0.026-0.157,0.041-0.202C4.591,18.547,5.078,18.228,5.635,17.866L5.635,17.866
			z M5.651,18.396c-0.321,0.232-0.645,0.478-0.975,0.729c-0.063,0.05-0.076,0.141-0.026,0.204c0.049,0.063,0.141,0.077,0.205,0.027
			c0.269-0.209,0.536-0.41,0.805-0.607L5.651,18.396L5.651,18.396z M5.667,18.93c-0.197,0.146-0.396,0.295-0.596,0.445
			c-0.063,0.049-0.077,0.141-0.027,0.204c0.049,0.064,0.139,0.076,0.202,0.028l0.068-0.053c-0.038,0.048-0.045,0.116-0.011,0.171
			c0.043,0.066,0.134,0.088,0.201,0.046l0.185-0.117l-0.01-0.336l-0.295,0.185c0.099-0.073,0.195-0.146,0.293-0.219L5.667,18.93z"/>
	</g>
</g>
</svg>
