<?xml version="1.0" encoding="utf-8"?>
<!-- Generator: Adobe Illustrator 16.0.0, SVG Export Plug-In . SVG Version: 6.00 Build 0)  -->
<!DOCTYPE svg PUBLIC "-//W3C//DTD SVG 1.1//EN" "http://www.w3.org/Graphics/SVG/1.1/DTD/svg11.dtd">
<svg version="1.1" id="Layer_1" xmlns="http://www.w3.org/2000/svg" xmlns:xlink="http://www.w3.org/1999/xlink" x="0px" y="0px"
	 width="179.825px" height="82.232px" viewBox="0 0 179.825 82.232" enable-background="new 0 0 179.825 82.232"
	 xml:space="preserve">
<g id="Jago_logo">
	<g>
		<defs>
			<path id="SVGID_1_" d="M139.966,27.214c-8.37,1.714-11.546,12.988-11.546,12.988c-9.192,2.792-1.678,29.338-0.031,30.098
				c1.068,0.49,1.417-3.002,1.417-3.002s0.132,12.673,3.823,13.393c3.696,0.721,5.551-12.576,5.551-12.576
				c0.118,3.24,1.123,2.648,1.123,2.648c1.588-0.293,7.943-12.088,8.111-20.045c0.174-7.954-2.257-8.391-2.257-8.391
				c-1.402-5.507,1.35-9.349,1.35-9.349c0.881-0.029,2.281-0.485,2.281-0.485c-1.406-0.659-1.952-1.31-1.952-1.31l2.323-1.801
				c-2.324-0.617-3.888-0.172-3.888-0.172c-1.979-1.778-4.141-2.07-5.349-2.068C140.328,27.142,139.966,27.214,139.966,27.214"/>
		</defs>
		<clipPath id="SVGID_2_">
			<use xlink:href="#SVGID_1_"  overflow="visible"/>
		</clipPath>
		
			<radialGradient id="SVGID_3_" cx="78.353" cy="480.8032" r="2.0213" gradientTransform="matrix(10.4297 -0.0101 -0.0101 -10.4297 -675.278 5069.3252)" gradientUnits="userSpaceOnUse">
			<stop  offset="0" style="stop-color:#EB2227"/>
			<stop  offset="0.0753" style="stop-color:#EB2227"/>
			<stop  offset="0.4194" style="stop-color:#EB2227"/>
			<stop  offset="1" style="stop-color:#C32126"/>
		</radialGradient>
		<polygon clip-path="url(#SVGID_2_)" fill="url(#SVGID_3_)" points="119.213,27.163 150.157,27.134 150.21,81.398 119.265,81.429 
					"/>
	</g>
	<path fill="#FFFFFF" d="M138.73,32.029c-0.306,1.903,0.879,3.697,2.646,4.017c1.77,0.314,3.45-0.964,3.756-2.873
		c0.302-1.893-0.885-3.701-2.651-4.012C140.709,28.833,139.032,30.125,138.73,32.029"/>
	<path fill="#010101" d="M141.54,31.807c-0.131,0.78,0.349,1.51,1.078,1.643c0.722,0.126,1.413-0.396,1.536-1.181
		c0.126-0.774-0.361-1.5-1.081-1.631C142.344,30.501,141.661,31.029,141.54,31.807"/>
	<path fill="#FFFFFF" d="M141.267,32.565c-0.051,0.344,0.158,0.665,0.479,0.73c0.32,0.049,0.628-0.176,0.681-0.523
		c0.053-0.343-0.157-0.667-0.479-0.726C141.621,31.982,141.316,32.211,141.267,32.565"/>
	<path fill="#EB2227" d="M7.433,64.324c-1.936,0.001-3.519,1.047-3.517,2.313v0.619l1.125-0.002v-0.617
		c0-0.867,1.076-1.568,2.393-1.57c1.319-0.002,2.403,0.699,2.404,1.564l0.004,3.873l-0.01,1.558l-6.304,0.007
		c-1.313,0.002-2.392-0.707-2.393-1.564l-0.001-2.342L0,68.164l0.001,2.342c0.003,1.271,1.591,2.304,3.526,2.303l7.436-0.008
		l-0.009-6.17C10.954,65.365,9.372,64.321,7.433,64.324"/>
	<path fill="#EB2227" d="M37.198,64.468l-25.114,0.023l0,0.747l9.831-0.009l0.001,1.186l-6.308,0.007
		c-1.935,0.001-3.514,1.038-3.512,2.319l0,1.752c0.002,1.271,1.582,2.306,3.517,2.303l7.436-0.008l-0.017-7.561l1.109-0.001
		l0.007,7.562l1.121-0.001l-0.007-7.562l10.915-0.011l0.001,1.187l-6.307,0.006c-1.943,0.002-3.522,1.038-3.52,2.32l0.001,1.752
		c0.002,1.271,1.582,2.304,3.525,2.303l7.429-0.007L37.3,70.468l-0.006-6.002L37.198,64.468z M15.612,72.056
		c-1.322,0.001-2.398-0.707-2.399-1.564l-0.002-1.751c-0.001-0.868,1.075-1.579,2.396-1.581l6.309-0.004l0.005,4.895L15.612,72.056z
		 M29.877,72.042c-1.32,0-2.398-0.708-2.399-1.564l-0.001-1.752c-0.002-0.867,1.077-1.578,2.396-1.578l6.307-0.007l0.004,3.336
		l0.001,1.56L29.877,72.042z"/>
	<path fill="#EB2227" d="M48.194,65.8l-3.084,0.003l0.002,2.704c0.001,1.137,1.291,2.139,2.949,2.321
		c-0.233,0.698-1.193,1.23-2.336,1.231l-2.797,0.003c-1.273-0.033-2.301-0.724-2.303-1.568l-0.004-3.843l-1.132,0.001l0.003,3.842
		c0.002,1.276,1.59,2.286,3.526,2.283l2.708-0.003c1.938-0.002,3.517-1.015,3.516-2.289l-0.001-0.328l-0.502-0.036l-0.108,0.001
		c-1.319,0.001-2.395-0.764-2.396-1.616l-0.001-1.969l1.962-0.001c1.32-0.001,2.395,0.711,2.396,1.574l0.004,4.66l1.117-0.002
		l-0.003-4.66C51.707,66.83,50.134,65.797,48.194,65.8"/>
	<path fill="#EB2227" d="M65.813,64.256l0.001,0.802c-0.631-0.382-1.473-0.617-2.396-0.615l-2.699,0.002
		c-1.939,0.003-3.516,1.036-3.514,2.306c0.002,1.266,1.579,2.302,3.518,2.3l0.932-0.016c-0.248,0.699-1.191,1.214-2.32,1.216
		L57.2,70.251v0.734l2.136-0.004c1.936-0.001,3.521-1.023,3.521-2.297v-0.377l-2.134,0.009c-1.316,0.003-2.394-0.695-2.395-1.566
		c0-0.845,1.076-1.558,2.391-1.559l1.568-0.001l1.227-0.002c1.275,0.023,2.3,0.715,2.3,1.553l0,0.334l0.006,5.701l1.128-0.002
		l-0.006-6.033c0.001-0.026,0.006-0.053,0.004-0.077v-1.672l1.059-0.002l0.008,7.782h1.121l-0.009-8.52L65.813,64.256z"/>
	<path fill="#EB2227" d="M56.117,64.451l-16.632,0.015v0.747L52.8,65.199l0.007,7.57l1.114-0.001l-0.007-7.57l1.079-0.001
		l0.005,5.292c0.002,1.271,1.583,2.298,3.525,2.296l0.428-0.006l0.019-0.73h-0.52c-1.288-0.021-2.327-0.721-2.326-1.561
		l-0.007-6.032V64.451z"/>
	<rect x="30.948" y="73.535" fill="#EB2227" width="4.117" height="0.73"/>
	<path fill="#EB2227" d="M59.695,2.297l0.009,10.312l2.667-0.003l-0.005-5.207l9.758-0.01L72.122,5.48L62.364,5.49l-0.002-3.195
		c0-0.146,0.167-0.267,0.375-0.267l9.383-0.009l-0.001-1.912l-9.385,0.01C61.056,0.118,59.693,1.099,59.695,2.297"/>
	<path fill="#EB2227" d="M88.689,0.094V0.092h-0.043l-3.835,0.004l-0.04,0v0.001c-0.618,0.007-1.192,0.142-1.667,0.378
		c-0.489-0.239-1.077-0.377-1.714-0.376l-0.458,0l-3.418,0.004L77.06,0.103c-1.683,0.002-3.046,0.983-3.045,2.183l0.01,10.31
		l2.669-0.003l-0.01-10.309c-0.001-0.151,0.168-0.271,0.378-0.271h0.453l3.42-0.003l0.458-0.001c0.211,0,0.38,0.12,0.379,0.269
		l0.01,10.175l-0.001,0.136l2.669-0.002v-0.136L84.437,2.274c0.001-0.149,0.169-0.269,0.377-0.269L88.647,2
		c0.212,0,0.379,0.12,0.38,0.27l0.009,10.309l2.668-0.001l-0.01-10.311C91.692,1.076,90.35,0.109,88.689,0.094"/>
	<path fill="#EB2227" d="M130.985,0.04l0.002,2.815l0.002,2.297c0.002,0.148-0.167,0.271-0.373,0.271l-4.503,0.004
		c-0.207,0-0.376-0.123-0.376-0.271l-0.006-5.112l-2.665,0.002l0.006,5.112c0.002,1.203,1.363,2.179,3.043,2.178l4.504-0.004
		c0.123,0,0.248-0.006,0.374-0.02l0.004,5.24l2.667-0.003l-0.007-7.4l-0.003-2.296l-0.001-2.815L130.985,0.04z"/>
	<rect x="120.223" y="10.589" fill="#EB2227" width="2.749" height="1.969"/>
	<path fill="#EB2227" d="M115.477,0.055l0.002,2.815l0.002,2.297c0,0.147-0.166,0.27-0.377,0.271l-4.499,0.004
		c-0.207,0.001-0.379-0.123-0.379-0.271L110.22,0.06l-2.667,0.003l0.006,5.112c0,1.2,1.362,2.179,3.046,2.177l4.501-0.004
		c0.128,0,0.255-0.006,0.379-0.02l0.004,5.238l2.669-0.003l-0.009-7.398l-0.001-2.297l-0.003-2.815L115.477,0.055z"/>
	<path fill="#EB2227" d="M95.162,12.567l7.521-0.007c1.68-0.002,3.045-0.98,3.044-2.179l-0.01-8.128
		c0-1.202-1.367-2.175-3.045-2.175l-4.504,0.005c-1.68,0.001-3.042,0.978-3.042,2.179l0.003,2.923
		c0.002,1.202,1.365,2.178,3.048,2.178l4.5-0.005c0.128,0,0.253-0.006,0.378-0.019l0.002,3.044
		c-0.001,0.148-0.169,0.267-0.376,0.267l-4.503,0.004c-0.004,0-0.006-0.001-0.011-0.001l-3.006,0.003L95.162,12.567z M103.051,5.179
		c0,0.147-0.17,0.269-0.376,0.269l-4.501,0.004c-0.209,0-0.376-0.119-0.375-0.267l-0.004-2.924c0-0.148,0.165-0.269,0.375-0.269
		l4.502-0.003c0.207,0,0.378,0.118,0.377,0.267L103.051,5.179z"/>
	<path fill="#231F20" d="M17.838,47.994c0,1.262-1.795,2.674-4.203,2.676c-2.408,0.003-4.206-1.407-4.206-2.668l-0.003-3.457
		l-9.432,0.009l0.003,3.457c0.006,6.673,6.131,12.093,13.648,12.086c7.521-0.007,13.628-5.438,13.622-12.111L27.25,31.091
		c-3.387-1.215-6.54-2.539-9.433-3.952L17.838,47.994z"/>
	<path fill="#231F20" d="M59.701,40.192l0,0.525c-0.136,5.595-4.727,10.113-10.36,10.119c-5.718,0.005-10.373-4.642-10.377-10.364
		c-0.002-1.989,0.555-3.851,1.529-5.43c-3.222-0.789-6.316-1.655-9.261-2.597c-1.09,2.457-1.701,5.174-1.697,8.037
		c0.01,10.918,8.898,19.795,19.815,19.785c3.802-0.003,7.347-1.086,10.368-2.949l0.002,2.927l9.429-0.008l-0.018-19.529
		c-0.001-0.089,0.004-0.176,0.005-0.265c0-0.087-0.006-0.176-0.006-0.261l-0.001-0.661c-3.275-0.262-6.479-0.595-9.61-0.997
		C59.624,39.068,59.684,39.624,59.701,40.192"/>
	<path fill="#231F20" d="M167.244,41.429l4.85-0.004c-0.009-7.601-2.546-14.622-6.81-20.266c-1.244,0.934-2.589,1.841-4.026,2.721
		C165.001,28.745,167.236,34.831,167.244,41.429"/>
	<path fill="#231F20" d="M167.53,19.357c4.66,6.137,7.433,13.782,7.442,22.064l4.853-0.005c-0.008-9.611-3.304-18.464-8.819-25.498
		C169.99,17.094,168.828,18.243,167.53,19.357"/>
	<path fill="#250D0E" d="M155.322,40.359c0.01,9.322-7.567,16.914-16.888,16.922c-9.326,0.009-16.917-7.568-16.928-16.89
		c0-1.066,0.108-2.111,0.294-3.121c-2.831,0.491-5.739,0.928-8.709,1.304c-0.044,0.603-0.069,1.213-0.068,1.826
		c0.014,14.004,11.413,25.38,25.419,25.366c14-0.014,25.38-11.412,25.365-25.416c-0.004-5.634-1.853-10.843-4.974-15.057
		c-2.402,1.334-5.028,2.597-7.854,3.785C153.675,32.074,155.318,36.025,155.322,40.359"/>
	<path fill="#231F20" d="M101.414,40.152l0.001,0.525c-0.138,5.596-4.726,10.113-10.354,10.118
		c-5.725,0.007-10.379-4.642-10.386-10.362c0.001-0.1,0.007-0.203,0.01-0.304c-3.19-0.082-6.332-0.235-9.421-0.448
		c-0.01,0.253-0.018,0.504-0.018,0.761c0.009,10.917,8.901,19.797,19.823,19.786c3.795-0.004,7.346-1.086,10.36-2.95l0.007,5.179
		h0.002c-0.009,5.701-4.653,10.339-10.356,10.344c-5.102,0.004-9.354-3.689-10.22-8.545l-9.508,0.009
		c0.933,10.071,9.427,17.978,19.735,17.968c10.917-0.01,19.79-8.904,19.779-19.822h-0.004l-0.021-21.742
		c0.001-0.089,0.003-0.176,0.003-0.265c0-0.087-0.003-0.176-0.003-0.26l-0.002-1.301c-3.085,0.354-6.239,0.641-9.45,0.861
		C101.401,39.853,101.41,40,101.414,40.152"/>
	<g>
		<defs>
			<path id="SVGID_4_" d="M17.797,7.711l0.019,19.427c2.894,1.412,6.049,2.736,9.436,3.954L27.229,7.702L17.797,7.711z"/>
		</defs>
		<clipPath id="SVGID_5_">
			<use xlink:href="#SVGID_4_"  overflow="visible"/>
		</clipPath>
		
			<linearGradient id="SVGID_6_" gradientUnits="userSpaceOnUse" x1="70.3428" y1="441.9526" x2="72.3651" y2="441.9526" gradientTransform="matrix(0.0134 13.8842 13.8842 -0.0134 -6114.5718 -950.9488)">
			<stop  offset="0" style="stop-color:#231F20"/>
			<stop  offset="0.1774" style="stop-color:#231F20"/>
			<stop  offset="0.3445" style="stop-color:#272425"/>
			<stop  offset="0.6185" style="stop-color:#323031"/>
			<stop  offset="0.9409" style="stop-color:#414142"/>
			<stop  offset="1" style="stop-color:#414142"/>
		</linearGradient>
		<polygon clip-path="url(#SVGID_5_)" fill="url(#SVGID_6_)" points="27.229,7.702 27.252,31.092 17.82,31.102 17.797,7.711 		"/>
	</g>
	<g>
		<defs>
			<path id="SVGID_7_" d="M31.232,32.447c2.946,0.94,6.042,1.809,9.262,2.594c1.828-2.963,5.099-4.947,8.828-4.95
				c5.062-0.005,9.288,3.634,10.198,8.434c3.132,0.404,6.337,0.734,9.611,0.999l-0.02-18.648l-9.429,0.009l0.002,2.705
				c-3.021-1.859-6.571-2.932-10.372-2.929C41.257,20.668,34.316,25.517,31.232,32.447"/>
		</defs>
		<clipPath id="SVGID_8_">
			<use xlink:href="#SVGID_7_"  overflow="visible"/>
		</clipPath>
		
			<linearGradient id="SVGID_9_" gradientUnits="userSpaceOnUse" x1="70.3618" y1="442.9819" x2="72.3836" y2="442.9819" gradientTransform="matrix(0.0134 13.8861 13.8861 -0.0134 -6102.062 -951.3799)">
			<stop  offset="0" style="stop-color:#231F20"/>
			<stop  offset="0.1774" style="stop-color:#231F20"/>
			<stop  offset="0.3445" style="stop-color:#272425"/>
			<stop  offset="0.6185" style="stop-color:#323031"/>
			<stop  offset="0.9409" style="stop-color:#414142"/>
			<stop  offset="1" style="stop-color:#414142"/>
		</linearGradient>
		<polygon clip-path="url(#SVGID_8_)" fill="url(#SVGID_9_)" points="69.11,20.641 69.13,39.523 31.239,39.559 31.22,20.678 		"/>
	</g>
	<g>
		<defs>
			<path id="SVGID_10_" d="M138.341,12.583c9.319-0.009,17.634,4.427,22.917,11.297c1.438-0.878,2.781-1.787,4.026-2.721
				c-6.17-8.161-15.956-13.438-26.949-13.427L138.341,12.583z"/>
		</defs>
		<clipPath id="SVGID_11_">
			<use xlink:href="#SVGID_10_"  overflow="visible"/>
		</clipPath>
		
			<linearGradient id="SVGID_12_" gradientUnits="userSpaceOnUse" x1="70.394" y1="446.5952" x2="72.4152" y2="446.5952" gradientTransform="matrix(0.0135 13.8838 13.8838 -0.0135 -6049.5684 -951.6723)">
			<stop  offset="0" style="stop-color:#231F20"/>
			<stop  offset="0.1774" style="stop-color:#231F20"/>
			<stop  offset="0.3563" style="stop-color:#272425"/>
			<stop  offset="0.6496" style="stop-color:#323031"/>
			<stop  offset="0.9946" style="stop-color:#414142"/>
			<stop  offset="1" style="stop-color:#414142"/>
		</linearGradient>
		<polygon clip-path="url(#SVGID_11_)" fill="url(#SVGID_12_)" points="165.271,7.706 165.286,23.877 138.352,23.903 138.335,7.732 
					"/>
	</g>
	<g>
		<defs>
			<path id="SVGID_13_" d="M138.333,4.85c11.902-0.011,22.498,5.691,29.197,14.51c1.296-1.118,2.46-2.265,3.474-3.442
				C163.398,6.222,151.579-0.014,138.329,0L138.333,4.85z"/>
		</defs>
		<clipPath id="SVGID_14_">
			<use xlink:href="#SVGID_13_"  overflow="visible"/>
		</clipPath>
		
			<linearGradient id="SVGID_15_" gradientUnits="userSpaceOnUse" x1="70.3291" y1="446.7515" x2="72.3503" y2="446.7515" gradientTransform="matrix(0.0134 13.8833 13.8833 -0.0134 -6048.6714 -950.8018)">
			<stop  offset="0" style="stop-color:#231F20"/>
			<stop  offset="0.1774" style="stop-color:#231F20"/>
			<stop  offset="0.3563" style="stop-color:#272425"/>
			<stop  offset="0.6496" style="stop-color:#323031"/>
			<stop  offset="0.9946" style="stop-color:#414142"/>
			<stop  offset="1" style="stop-color:#414142"/>
		</linearGradient>
		<polygon clip-path="url(#SVGID_14_)" fill="url(#SVGID_15_)" points="170.988,-0.032 171.007,19.355 138.347,19.388 138.329,0 		
			"/>
	</g>
	<g>
		<defs>
			<path id="SVGID_16_" d="M113.092,38.575c2.97-0.375,5.882-0.813,8.709-1.304c1.463-7.839,8.344-13.796,16.598-13.805
				c4.991-0.005,9.484,2.168,12.582,5.613c2.825-1.188,5.451-2.451,7.855-3.785c-4.637-6.258-12.074-10.32-20.446-10.312
				C125.007,14.996,114.014,25.42,113.092,38.575"/>
		</defs>
		<clipPath id="SVGID_17_">
			<use xlink:href="#SVGID_16_"  overflow="visible"/>
		</clipPath>
		
			<linearGradient id="SVGID_18_" gradientUnits="userSpaceOnUse" x1="70.3481" y1="446.0874" x2="72.3702" y2="446.0874" gradientTransform="matrix(0.0134 13.8855 13.8855 -0.0134 -6059.1362 -951.1516)">
			<stop  offset="0" style="stop-color:#231F20"/>
			<stop  offset="0.1774" style="stop-color:#231F20"/>
			<stop  offset="0.3445" style="stop-color:#272425"/>
			<stop  offset="0.6185" style="stop-color:#323031"/>
			<stop  offset="0.9409" style="stop-color:#414142"/>
			<stop  offset="1" style="stop-color:#414142"/>
		</linearGradient>
		<polygon clip-path="url(#SVGID_17_)" fill="url(#SVGID_18_)" points="158.825,14.964 158.85,38.53 113.092,38.575 113.068,15.007 
					"/>
	</g>
	<g>
		<defs>
			<path id="SVGID_19_" d="M71.264,39.682c3.087,0.212,6.231,0.364,9.421,0.447c0.157-5.581,4.735-10.073,10.354-10.078
				c5.479-0.005,9.979,4.264,10.354,9.652c3.209-0.22,6.365-0.505,9.448-0.859l-0.017-18.009l-9.432,0.009l0.004,2.706
				c-3.016-1.859-6.572-2.933-10.366-2.929C80.364,20.631,71.657,29.114,71.264,39.682"/>
		</defs>
		<clipPath id="SVGID_20_">
			<use xlink:href="#SVGID_19_"  overflow="visible"/>
		</clipPath>
		
			<linearGradient id="SVGID_21_" gradientUnits="userSpaceOnUse" x1="70.3965" y1="444.3843" x2="72.419" y2="444.3843" gradientTransform="matrix(0.0135 13.885 13.885 -0.0135 -6080.1855 -951.7538)">
			<stop  offset="0" style="stop-color:#231F20"/>
			<stop  offset="0.1774" style="stop-color:#231F20"/>
			<stop  offset="0.3445" style="stop-color:#272425"/>
			<stop  offset="0.6185" style="stop-color:#323031"/>
			<stop  offset="0.9409" style="stop-color:#414142"/>
			<stop  offset="1" style="stop-color:#414142"/>
		</linearGradient>
		<polygon clip-path="url(#SVGID_20_)" fill="url(#SVGID_21_)" points="110.824,20.601 110.842,40.099 71.262,40.138 71.243,20.64 
					"/>
	</g>
</g>
</svg>
